<?xml version="1.0" standalone="no"?>
<!DOCTYPE svg PUBLIC "-//W3C//DTD SVG 1.1//EN" "http://www.w3.org/Graphics/SVG/1.1/DTD/svg11.dtd" >
<svg xmlns="http://www.w3.org/2000/svg">
<metadata>Generated by IcoMoon</metadata>
<defs>
<font id="gwcms" horiz-adv-x="1024">
<font-face units-per-em="1024" ascent="960" descent="-64" />
<missing-glyph horiz-adv-x="1024" />
<glyph unicode="&#x20;" horiz-adv-x="512" d="" />
<glyph unicode="&#xe900;" glyph-name="Cancel-Filled" d="M512 898.56c-248.443 0-450.56-202.117-450.56-450.56s202.117-450.56 450.56-450.56 450.56 202.117 450.56 450.56-202.117 450.56-450.56 450.56zM700.559 288.399c8.008-8.008 8.008-20.951 0-28.959-3.994-3.994-9.236-6.001-14.479-6.001s-10.486 2.007-14.479 6.001l-159.601 159.601-159.601-159.601c-3.994-3.994-9.236-6.001-14.479-6.001s-10.486 2.007-14.479 6.001c-8.008 8.008-8.008 20.951 0 28.959l159.601 159.601-159.601 159.601c-8.008 8.008-8.008 20.951 0 28.959s20.951 8.008 28.959 0l159.601-159.601 159.601 159.601c8.008 8.008 20.951 8.008 28.959 0s8.008-20.951 0-28.959l-159.601-159.601 159.601-159.601z" />
<glyph unicode="&#xe901;" glyph-name="Plus" d="M512 898.56c-248.595 0-450.56-201.965-450.56-450.56s201.965-450.56 450.56-450.56c248.595 0 450.56 201.965 450.56 450.56s-201.965 450.56-450.56 450.56zM512 857.6c226.458 0 409.6-183.142 409.6-409.6s-183.142-409.6-409.6-409.6c-226.458 0-409.6 183.142-409.6 409.6s183.142 409.6 409.6 409.6zM491.52 673.28v-204.8h-204.8v-40.96h204.8v-204.8h40.96v204.8h204.8v40.96h-204.8v204.8h-40.96z" />
<glyph unicode="&#xe902;" glyph-name="Process-Filled" d="M504.96 958.080c-27.114 0.028-54.721-2.177-81.92-6.4-21.265-1.644-37.898-19.304-37.898-40.849 0-22.624 18.34-40.964 40.964-40.964 3.455 0 6.811 0.428 10.016 1.233 159.839 24.799 323.37-40.003 419.557-166.46h-108.16c-0.172 0.003-0.376 0.004-0.579 0.004-22.624 0-40.964-18.34-40.964-40.964s18.34-40.964 40.964-40.964c0.204 0 0.407 0.001 0.61 0.004h196.449c22.621 0.002 40.958 18.339 40.96 40.96v196.48c0.003 0.191 0.005 0.416 0.005 0.641 0 22.624-18.34 40.964-40.964 40.964-0.225 0-0.45-0.002-0.675-0.005-0.539 0.029-1.211 0.045-1.886 0.045s-1.347-0.016-2.014-0.049c-20.522-2.328-36.395-19.668-36.395-40.715 0-0.31 0.003-0.619 0.010-0.927l-0.001-83.154c-98.649 115.28-245.848 180.961-398.080 181.12zM96 920.96c-21.809-1.049-39.093-18.986-39.093-40.96 0-22.646 18.359-41.005 41.005-41.005 0.678 0 1.353 0.016 2.023 0.049l81.186-0.004c-111.198-94.303-181.12-235.35-181.12-391.040 0-29.438 2.182-56.939 6.4-84.48 1.201-21.657 19.055-38.763 40.905-38.763 22.624 0 40.964 18.34 40.964 40.964 0 3.537-0.448 6.969-1.291 10.243-3.543 23.252-5.058 46.505-5.058 72.036 0 140.717 68.15 266.525 173.44 344.96v-109.44c-0.003-0.172-0.004-0.376-0.004-0.579 0-22.624 18.34-40.964 40.964-40.964s40.964 18.34 40.964 40.964c0 0.204-0.001 0.407-0.004 0.61v196.449c-0.002 22.621-18.339 40.958-40.96 40.96h-196.48c-0.573 0.029-1.245 0.045-1.92 0.045s-1.347-0.016-2.014-0.049zM974.72 565.12c-21.723-1.124-38.911-19.011-38.911-40.913 0-2.276 0.186-4.509 0.543-6.685 23.187-157.491-42.844-318.415-167.712-413.203v108.16c0.003 0.191 0.005 0.416 0.005 0.641 0 22.624-18.34 40.964-40.964 40.964-0.225 0-0.45-0.002-0.675-0.005-0.539 0.029-1.211 0.045-1.886 0.045s-1.347-0.016-2.014-0.049c-20.522-2.328-36.395-19.668-36.395-40.715 0-0.31 0.003-0.619 0.010-0.927l-0.001-182.354v-14.080c0.002-22.621 18.339-40.958 40.96-40.96h196.48c0.172-0.003 0.376-0.004 0.579-0.004 22.624 0 40.964 18.34 40.964 40.964s-18.34 40.964-40.964 40.964c-0.204 0-0.407-0.001-0.61-0.004h-83.809c134.387 114.556 203.482 294.965 177.28 472.96-2.895 20.039-19.952 35.265-40.566 35.265-0.814 0-1.623-0.024-2.425-0.071zM76.16 273.28c-20.909-2.029-37.12-19.513-37.12-40.783 0-0.062 0-0.124 0-0.186v-196.47c-0.003-0.172-0.004-0.376-0.004-0.579 0-22.624 18.34-40.964 40.964-40.964s40.964 18.34 40.964 40.964c0 0.204-0.001 0.407-0.004 0.61v81.889c94.171-111.44 234.876-181.76 391.040-181.76 29.438 0 56.918 2.156 84.48 6.4 21.657 1.201 38.763 19.055 38.763 40.905 0 22.624-18.34 40.964-40.964 40.964-3.537 0-6.969-0.448-10.243-1.291-23.231-3.559-46.505-5.058-72.036-5.058-140.647 0-265.772 68.313-344.32 173.44h108.8c0.172-0.003 0.376-0.004 0.579-0.004 22.624 0 40.964 18.34 40.964 40.964s-18.34 40.964-40.964 40.964c-0.204 0-0.407-0.001-0.61-0.004h-196.449c-0.573 0.029-1.245 0.045-1.92 0.045s-1.347-0.016-2.014-0.049z" />
<glyph unicode="&#xe903;" glyph-name="Process" d="M512 960c-43.008 0-85.073-6.356-124.8-14.72-9.444-1.998-16.429-10.263-16.429-20.161 0-11.369 9.216-20.585 20.585-20.585 1.474 0 2.912 0.155 4.299 0.45 37.962 7.996 77.433 14.056 116.345 14.056 170.136 0 317.723-90.737 400.64-225.28h-154.88c-0.086 0.001-0.188 0.002-0.29 0.002-11.312 0-20.482-9.17-20.482-20.482s9.17-20.482 20.482-20.482c0.102 0 0.204 0.001 0.305 0.002h204.785c11.31 0.001 20.479 9.17 20.48 20.48v204.8c0.008 0.217 0.013 0.473 0.013 0.729 0 11.312-9.17 20.482-20.482 20.482-0.68 0-1.352-0.033-2.015-0.098-0.923-0.179-1.784-0.4-2.621-0.674-9.083-2.078-15.861-10.221-15.861-19.946 0-0.173 0.002-0.346 0.006-0.519l-0.001-154.214c-91.026 141.563-248.912 236.16-430.080 236.16zM76.16 919.040c-10.116-1.463-17.802-10.074-17.802-20.48 0-11.422 9.259-20.682 20.682-20.682 1.016 0 2.015 0.073 2.991 0.215l152.209-0.013c-141.403-91.376-234.24-250.842-234.24-430.080 0-29.647 2.148-57.482 6.4-85.12 0.822-10.633 9.652-18.949 20.425-18.949 11.312 0 20.482 9.17 20.482 20.482 0 1.728-0.214 3.405-0.617 5.008-3.91 25.469-5.73 50.882-5.73 78.579 0 169.095 90.016 319.083 225.28 401.92v-156.16c-0.001-0.086-0.002-0.188-0.002-0.29 0-11.312 9.17-20.482 20.482-20.482s20.482 9.17 20.482 20.482c0 0.102-0.001 0.204-0.002 0.305v184.305c0.79 2.093 1.248 4.513 1.248 7.040s-0.458 4.947-1.294 7.181l0.046 6.259c-0.001 11.31-9.17 20.479-20.48 20.48h-204.8c-0.287 0.014-0.622 0.023-0.96 0.023s-0.673-0.008-1.007-0.024c-0.24 0.016-0.575 0.024-0.913 0.024s-0.673-0.008-1.007-0.024c-0.24 0.016-0.575 0.024-0.913 0.024s-0.673-0.008-1.007-0.024zM989.44 570.88c-9.444-1.949-16.444-10.197-16.444-20.080 0-1.502 0.162-2.966 0.468-4.375 5.939-31.671 9.575-65.215 9.575-98.425 0-170.136-90.737-317.723-225.28-400.64v154.88c0.008 0.217 0.013 0.473 0.013 0.729 0 11.312-9.17 20.482-20.482 20.482-0.68 0-1.352-0.033-2.015-0.098-0.923-0.179-1.784-0.4-2.621-0.674-9.083-2.078-15.861-10.221-15.861-19.946 0-0.173 0.002-0.346 0.006-0.519l-0.001-186.854c-0.129-0.865-0.202-1.864-0.202-2.88s0.073-2.015 0.215-2.991l-0.013-12.049c0.001-11.31 9.17-20.479 20.48-20.48h204.8c0.086-0.001 0.188-0.002 0.29-0.002 11.312 0 20.482 9.17 20.482 20.482s-9.17 20.482-20.482 20.482c-0.102 0-0.204-0.001-0.305-0.002h-154.225c141.563 91.026 236.16 248.912 236.16 430.080 0 36.422-4.556 72.51-10.88 106.24-1.746 9.688-10.113 16.942-20.174 16.942-1.239 0-2.452-0.11-3.63-0.321zM57.6 243.2c-9.542-1.869-16.643-10.165-16.643-20.119 0-0.127 0.001-0.254 0.003-0.38v-204.781c-0.001-0.086-0.002-0.188-0.002-0.29 0-11.312 9.17-20.482 20.482-20.482s20.482 9.17 20.482 20.482c0 0.102-0.001 0.204-0.002 0.305v152.945c91.385-141.373 250.482-234.88 430.080-234.88 29.647 0 57.482 2.148 85.12 6.4 10.633 0.822 18.949 9.652 18.949 20.425 0 11.312-9.17 20.482-20.482 20.482-1.728 0-3.405-0.214-5.008-0.617-25.469-3.91-50.882-5.73-78.579-5.73-169.332 0-318.3 90.021-401.28 225.28h155.52c0.086-0.001 0.188-0.002 0.29-0.002 11.312 0 20.482 9.17 20.482 20.482s-9.17 20.482-20.482 20.482c-0.102 0-0.204-0.001-0.305-0.002h-204.785c-0.287 0.014-0.622 0.023-0.96 0.023s-0.673-0.008-1.007-0.024c-0.24 0.016-0.575 0.024-0.913 0.024s-0.673-0.008-1.007-0.024z" />
<glyph unicode="&#xe904;" glyph-name="Refresh-Filled" d="M409.6 878.080c-112.454 0-204.8-92.346-204.8-204.8v-363.52l-58.88 58.88-57.6-58.24 157.44-157.44 157.44 157.44-57.6 57.6-58.88-58.24v363.52c0 67.77 55.11 122.88 122.88 122.88h225.28v81.92h-225.28zM778.24 743.040l-158.080-158.080 58.24-57.6 58.88 58.88v-363.52c0-67.77-55.11-122.88-122.88-122.88h-225.28v-81.92h225.28c112.454 0 204.8 92.346 204.8 204.8v363.52l58.88-58.88 57.6 58.24-157.44 157.44z" />
<glyph unicode="&#xe905;" glyph-name="Refresh" d="M409.6 878.080c-101.283 0-184.32-83.037-184.32-184.32v-462.080l-108.16 108.16-29.44-29.44 143.36-143.36 14.72-14.080 14.72 14.080 143.36 143.36-29.44 29.44-108.16-108.16v462.080c0 78.941 64.419 143.36 143.36 143.36h225.28v40.96h-225.28zM778.24 743.040l-14.72-14.080-143.36-143.36 29.44-29.44 108.16 108.16v-462.080c0-78.941-64.419-143.36-143.36-143.36h-225.28v-40.96h225.28c101.283 0 184.32 83.037 184.32 184.32v462.080l108.16-108.16 29.44 29.44-143.36 143.36-14.72 14.080z" />
<glyph unicode="&#xe906;" glyph-name="Restart-Filled" d="M508.16 837.12c-21.809-1.049-39.093-18.986-39.093-40.96 0-22.646 18.359-41.005 41.005-41.005 0.678 0 1.353 0.016 2.023 0.049 170.34-0.004 307.106-136.769 307.106-307.204s-136.766-307.2-307.2-307.2c-170.434 0-307.2 136.766-307.2 307.2 0 80.433 31.64 153.299 81.92 208v-85.12c-0.003-0.172-0.004-0.376-0.004-0.579 0-22.624 18.34-40.964 40.964-40.964s40.964 18.34 40.964 40.964c0 0.204-0.001 0.407-0.004 0.61v225.249h-225.28c-0.573 0.029-1.245 0.045-1.92 0.045s-1.347-0.016-2.014-0.049c-21.715-1.046-38.999-18.983-38.999-40.957 0-22.646 18.359-41.005 41.005-41.005 0.678 0 1.353 0.016 2.023 0.049l86.306-0.004c-65.269-69.413-106.88-162.84-106.88-266.24 0-214.59 174.53-389.12 389.12-389.12s389.12 174.53 389.12 389.12c0 214.59-174.53 389.12-389.12 389.12-0.573 0.029-1.245 0.045-1.92 0.045s-1.347-0.016-2.014-0.049z" />
<glyph unicode="&#xe907;" glyph-name="Restart" d="M508.16 816.64c-10.504-1.014-18.65-9.796-18.65-20.48 0-11.36 9.209-20.57 20.57-20.57 0.676 0 1.344 0.033 2.004 0.096 181.389-0.007 327.596-146.213 327.596-327.687s-146.207-327.68-327.68-327.68c-181.473 0-327.68 146.207-327.68 327.68 0 96.068 42.306 182.778 107.52 242.56 0.22 0.203 0.419 0.438 0.64 0.64 4.923 4.218 9.837 8.254 14.72 12.16v-132.48c-0.001-0.086-0.002-0.188-0.002-0.29 0-11.312 9.17-20.482 20.482-20.482s20.482 9.17 20.482 20.482c0 0.102-0.001 0.204-0.002 0.305v204.785h-204.8c-0.287 0.014-0.622 0.023-0.96 0.023s-0.673-0.008-1.007-0.024c-10.855-0.525-19.495-9.493-19.495-20.478 0-11.323 9.179-20.502 20.502-20.502 0.338 0 0.673 0.008 1.007 0.024l136.913-0.002c-5.309-4.404-10.401-9.19-15.36-13.44-73.673-67.173-121.6-164.873-121.6-273.28 0-203.551 165.089-368.64 368.64-368.64s368.64 165.089 368.64 368.64c0 203.551-165.089 368.64-368.64 368.64-0.287 0.014-0.622 0.023-0.96 0.023s-0.673-0.008-1.007-0.024c-0.24 0.016-0.575 0.024-0.913 0.024s-0.673-0.008-1.007-0.024z" />
<glyph unicode="&#xe908;" glyph-name="Rotate-Left-Filled" d="M225.28 837.12c-22.61 0-40.96-18.35-40.96-40.96v-184.32h184.32c22.61 0 40.96 18.35 40.96 40.96s-18.35 40.96-40.96 40.96h-40.32c52.716 39.383 116.936 61.44 183.68 61.44 169.267 0 306.954-137.375 307.2-306.56-0.123-15.974-0.773-47.811-1.92-57.6-2.621-22.467 13.353-42.839 35.84-45.44 1.597-0.205 2.903 0 4.48 0 20.5 0 38.543 15.611 40.96 36.48 1.823 15.708 2.437 51.461 2.56 65.92 0.020 0.143 0 0.497 0 0.64 0 1.249 0 2.34 0 3.2 0 1.331-0.497 2.55-0.64 3.84-4.157 210.964-176.512 381.44-388.48 381.44-90.092 0-176.742-32.041-245.76-88.32v47.36c0 22.61-18.35 40.96-40.96 40.96zM162.56 457.6c-22.61-0.86-40.561-20.91-39.68-43.52 0.86-22.057 19.067-39.68 40.96-39.68 0.532 0.020 1.388 0.599 1.92 0.64 22.61 0.86 39.9 19.63 39.040 42.24v1.28c-0.86 22.61-20.244 40.105-42.24 39.040zM183.68 339.2c-2.702-0.324-5.637-1.032-8.32-1.92-21.443-7.209-32.788-30.377-25.6-51.84l4.48-10.24c7.107-14.5 21.345-23.040 36.48-23.040 6.042 0 12.124 1.633 17.92 4.48 20.337 9.953 28.534 34.084 18.56 54.4-6.308 18.762-24.605 30.429-43.52 28.16zM827.52 318.72c-15.78-0.324-30.193-10.132-37.12-25.6-7.311-16.343-11.382-21.868-22.4-35.2-14.418-17.449-10.281-43.858 7.68-57.6 7.414-5.673 16.297-8.32 24.96-8.32 12.349 0 23.649 6.252 32.64 16 13.763 14.93 22.871 32.015 32.64 54.4 9.032 20.726-1.449 44.621-22.4 53.12-5.238 2.125-10.74 3.308-16 3.2zM259.2 224.64c-7.829-0.986-15.378-4.649-21.76-10.24-17.019-14.93-19.835-41.626-3.84-57.6l7.040-8.32c7.782-6.82 17.295-10.24 26.88-10.24 11.387 0 22.61 4.823 30.72 14.080 14.909 16.998 13.798 43.331-3.2 58.24-9.306 10.611-22.792 15.724-35.84 14.080zM705.28 179.84c-7.869-0.462-15.626-3.197-22.4-8.32-11.776-8.909-17.592-12.068-38.4-21.12-20.746-9.011-31.539-32.169-23.040-53.12 6.451-15.913 22.2-25.6 38.4-25.6 5.12 0 10.24 1.377 15.36 3.2 19.62 7.045 35.748 16.287 57.6 31.36 18.616 12.841 21.422 39.619 7.68 57.6-8.563 11.238-22.086 16.771-35.2 16zM378.88 147.2c-16.011 0.733-31.56-7.178-39.040-22.4-9.974-20.296-1.736-45.046 18.56-55.040 0 0 9.267-3.082 11.52-3.84 4.321-1.434 8.479-2.56 12.8-2.56 17.121 0 33.306 11.018 39.040 28.16 7.188 21.443-5.417 44.672-26.88 51.84-5.207 2.196-10.663 3.596-16 3.84zM512 120.32c-22.61 0-40.96-18.35-40.96-40.96s18.35-40.96 40.96-40.96c2.806 0 3.681 0.102 4.48 0 2.826-0.348 5.658-0.64 8.32-0.64 3.523 0 7.107-0.015 12.8 0.64 22.467 2.662 38.482 23.613 35.84 46.080-2.662 22.467-23.014 38.584-45.44 35.84-1.188-0.143-1.782-0.579-2.56-0.64-2.437 0.287-6.231 0.64-13.44 0.64z" />
<glyph unicode="&#xe909;" glyph-name="Rotate-Left" d="M202.88 837.76c-1.007-0.185-1.868-0.407-2.705-0.681-9.083-2.078-15.861-10.221-15.861-19.946 0-0.173 0.002-0.346 0.006-0.519l-0.001-184.294v-20.48h204.8c0.086-0.001 0.188-0.002 0.29-0.002 11.312 0 20.482 9.17 20.482 20.482s-9.17 20.482-20.482 20.482c-0.102 0-0.204-0.001-0.305-0.002h-132.465c4.004 5.022 7.913 10.006 12.16 14.72 59.985 66.502 146.479 108.16 243.2 108.16 181.242 0 327.68-146.438 327.68-327.68 0.057-3.532 0.999-6.832 2.613-9.703-1.677-2.765-2.634-6.196-2.634-9.85 0-0.326 0.008-0.65 0.023-0.972-0.002-12.991-0.453-25.678-1.922-38.354-0.409-1.529-0.644-3.285-0.644-5.096 0-11.312 9.17-20.482 20.482-20.482 11.303 0 20.468 9.156 20.482 20.457 1.644 14.194 2.56 28.869 2.56 43.521-0.057 3.532-0.999 6.832-2.613 9.703 1.677 2.765 2.634 6.196 2.634 9.85 0 0.326-0.008 0.65-0.023 0.972 0.002 203.327-165.266 368.594-368.638 368.594-108.53 0-206.478-46.831-273.92-121.6-4.464-4.955-8.603-10.129-12.8-15.36v136.96c0.008 0.217 0.013 0.473 0.013 0.729 0 11.312-9.17 20.482-20.482 20.482-0.68 0-1.352-0.033-2.015-0.098zM161.92 448.64c-1.007-0.185-1.868-0.407-2.705-0.681-9.083-2.078-15.861-10.221-15.861-19.946 0-0.173 0.002-0.346 0.006-0.519-0.001-7.262 0.229-14.581 0.639-21.734 0.694-10.768 9.597-19.24 20.48-19.24 11.333 0 20.52 9.187 20.52 20.52 0 0.45-0.015 0.897-0.043 1.34-0.365 6.344-0.637 12.665-0.637 19.14 0.008 0.217 0.013 0.473 0.013 0.729 0 11.312-9.17 20.482-20.482 20.482-0.68 0-1.352-0.033-2.015-0.098zM187.52 336.64l-17.92-3.2-8.32-16.64 1.28-7.040 8.32-21.76v-0.64l0.64-0.64 8.96-20.48 14.080-11.52 17.92 4.48 7.040 16.64-1.28 7.040-8.96 19.2-0.64 1.28-7.68 20.48-13.44 12.8zM837.12 317.44l-17.28-6.4-3.84-6.4-5.12-12.8h-0.64l-8.32-17.28-0.64-0.64-8.96-16-0.64-0.64-9.6-15.36-0.64-0.64-8.96-12.8-3.2-17.92 12.8-13.44 17.92 1.92 5.12 5.12 10.24 13.44v0.64l0.64 0.64 10.88 16.64 0.64 0.64v0.64l10.24 17.92 0.64 0.64 8.96 18.56v1.28l6.4 13.44-1.28 18.56-15.36 10.24zM247.68 218.24l-15.36-9.6-1.28-18.56 3.84-5.76 15.36-16.64 0.64-0.64h0.64l16.64-16 1.28-1.28 17.92-3.84 14.080 11.52-1.28 18.56-4.48 4.48v0.64l-0.64 0.64-14.72 14.080-0.64 0.64-14.72 15.36-17.28 6.4zM717.44 170.24l-6.4-3.2-8.32-6.4-1.28-0.64-14.72-9.6-0.64-0.64-16-8.96-0.64-0.64-16-8.32h-0.64l-0.64-0.64-17.92-7.68-11.52-14.080 4.48-17.92 16.64-7.040 7.040 1.28 19.2 8.32v0.64h0.64l18.56 9.6 0.64 0.64 17.92 10.24 0.64 0.64 16.64 10.88 0.64 0.64h0.64l8.96 7.040 8.32 16.64-8.32 16-17.92 3.2zM367.36 133.12l-18.56-0.64-10.24-14.72 5.76-17.28 6.4-4.48 19.84-8.96h0.64l0.64-0.64 21.76-7.68 0.64-0.64h0.64l0.64-0.64 17.92 3.2 8.32 16.64-7.68 16.64-6.4 3.2h-1.28l-19.2 7.040-1.28 0.64-18.56 8.32zM551.68 102.4c-0.554-0.252-0.974-0.466-1.385-0.693-11.433-1.305-23.17-1.796-35.095-1.867-1.083-0.006-2.113 0-3.2 0-0.649 0-1.273-0.005-1.92 0-5.826 0.045-11.591 0.296-17.28 0.64-0.576 0.057-1.244 0.090-1.92 0.090s-1.344-0.033-2.004-0.097c-10.956-0.346-19.772-9.38-19.772-20.474 0-11.316 9.174-20.49 20.49-20.49 0.227 0 0.453 0.004 0.678 0.011 5.929-0.361 11.918-0.581 17.887-0.641 1.278-0.013 2.566 0 3.84 0 0.645 0 1.275-0.003 1.92 0 13.991 0.075 28.024 0.962 41.6 2.56 10.504 1.014 18.65 9.796 18.65 20.48 0 11.36-9.209 20.57-20.57 20.57-0.676 0-1.344-0.033-2.004-0.096z" />
<glyph unicode="&#xe90a;" glyph-name="Rotate-Right-Filled" d="M516.48 837.12c-211.968 0-384.323-170.476-388.48-381.44-0.123-1.29-0.64-2.529-0.64-3.84 0-0.86-0.020-1.951 0-3.2 0-0.123 0-0.497 0-0.64 0.123-14.459 0.758-50.212 2.56-65.92 2.437-20.869 20.46-36.48 40.96-36.48 1.577 0.020 2.883 0.435 4.48 0.64 22.467 2.601 39.101 22.333 36.48 44.8-1.147 9.789-2.458 41.626-2.56 57.6 0.246 169.165 137.953 306.56 307.2 306.56 66.744 0 131.604-22.057 184.32-61.44h-40.96c-22.61 0-40.96-18.35-40.96-40.96 0-22.63 18.35-40.96 40.96-40.96h184.32v184.32c0 22.61-18.35 40.96-40.96 40.96s-40.96-18.35-40.96-40.96v-47.36c-69.038 56.279-155.668 88.32-245.76 88.32zM865.92 457.6c-21.996 1.065-41.38-16.43-42.24-39.040v-1.28c-0.881-22.61 17.050-41.38 39.68-42.24 0.512-0.041 0.748 0 1.28 0 21.873 0 40.1 16.983 40.96 39.040 0.86 22.61-17.070 42.66-39.68 43.52zM837.12 339.2c-15.921-1.236-30.449-12.078-35.84-28.16-9.974-20.316-1.736-44.426 18.56-54.4 5.796-2.847 11.858-4.48 17.92-4.48 15.135 0 29.993 8.54 37.12 23.040l3.84 10.24c7.188 21.463-4.157 44.631-25.6 51.84-5.371 1.782-10.693 2.332-16 1.92zM200.96 318.72c-5.26 0.108-10.762-1.075-16-3.2-20.951-8.499-31.452-32.415-22.4-53.12 9.789-22.385 19.517-39.45 33.28-54.4 8.97-9.769 20.291-16 32.64-16 8.663 0 17.546 2.647 24.96 8.32 17.961 13.742 22.098 40.151 7.68 57.6-11.039 13.292-15.089 18.857-22.4 35.2-6.927 15.468-21.98 25.276-37.76 25.6zM761.6 224.64c-10.455-0.689-20.705-5.581-28.16-14.080-16.998-14.93-18.109-41.242-3.2-58.24 8.11-9.236 19.313-14.080 30.72-14.080 9.585 0 19.118 3.42 26.88 10.24l7.68 8.32c15.995 15.974 13.179 42.691-3.84 57.6-8.499 7.465-19.625 10.929-30.080 10.24zM315.52 179.84c-10.376-1.38-20.659-7.009-27.52-16-13.742-17.981-10.936-44.759 7.68-57.6 21.852-15.053 37.98-24.315 57.6-31.36 5.12-1.843 10.24-3.2 15.36-3.2 16.2 0 31.949 9.687 38.4 25.6 8.52 20.951-1.674 44.109-22.4 53.12-20.808 9.032-27.244 12.211-39.040 21.12-9.042 6.83-19.704 9.7-30.080 8.32zM649.6 147.2c-5.339-0.244-10.793-1.644-16-3.84-21.463-7.188-34.068-30.397-26.88-51.84 5.734-17.142 21.919-28.16 39.040-28.16 4.321 0 8.479 1.126 12.8 2.56 2.273 0.758 11.52 3.84 11.52 3.84 20.296 9.974 28.534 34.744 18.56 55.040-7.48 15.222-23.023 23.133-39.040 22.4zM492.16 120.32c-19.033-1.522-34.79-16.182-37.12-35.84-2.662-22.467 13.373-43.418 35.84-46.080 5.673-0.655 9.897-0.64 13.44-0.64 2.662 0 4.854 0.312 7.68 0.64 0.799 0.102 1.654 0 4.48 0 22.61 0 40.96 18.35 40.96 40.96s-18.35 40.96-40.96 40.96c-7.045 0-10.199-0.353-12.8-0.64-0.758 0.061-1.992 0.497-3.2 0.64-2.821 0.353-5.601 0.217-8.32 0z" />
<glyph unicode="&#xe90b;" glyph-name="Rotate-Right" d="M817.28 837.76c-1.007-0.185-1.868-0.407-2.705-0.681-9.083-2.078-15.861-10.221-15.861-19.946 0-0.173 0.002-0.346 0.006-0.519l-0.001-136.934c-4.197 5.231-8.336 10.405-12.8 15.36-67.442 74.769-165.39 121.6-273.92 121.6-203.372 0-368.64-165.268-368.64-368.64 0.057-3.532 0.999-6.832 2.613-9.703-1.677-2.765-2.634-6.196-2.634-9.85 0-0.326 0.008-0.65 0.023-0.972-0.002-14.607 0.914-29.281 2.558-43.474 0.014-11.302 9.179-20.458 20.482-20.458 11.312 0 20.482 9.17 20.482 20.482 0 1.811-0.235 3.567-0.676 5.239-1.437 12.534-1.888 25.221-1.888 38.257-0.057 3.532-0.999 6.832-2.613 9.703 1.677 2.765 2.634 6.196 2.634 9.85 0 0.326-0.008 0.65-0.023 0.972 0.002 181.196 146.44 327.634 327.682 327.634 96.721 0 183.215-41.658 243.2-108.16 4.247-4.714 8.156-9.698 12.16-14.72h-132.48c-0.086 0.001-0.188 0.002-0.29 0.002-11.312 0-20.482-9.17-20.482-20.482s9.17-20.482 20.482-20.482c0.102 0 0.204 0.001 0.305 0.002h204.785v204.8c0.008 0.217 0.013 0.473 0.013 0.729 0 11.312-9.17 20.482-20.482 20.482-0.68 0-1.352-0.033-2.015-0.098zM858.24 448.64c-1.007-0.185-1.868-0.407-2.705-0.681-9.083-2.078-15.861-10.221-15.861-19.946 0-0.173 0.002-0.346 0.006-0.519-0.001-6.449-0.29-12.729-0.641-19.174-0.025-0.383-0.040-0.83-0.040-1.28 0-11.333 9.187-20.52 20.52-20.52 10.883 0 19.786 8.471 20.477 19.18 0.39 7.172 0.643 14.533 0.643 21.82 0.008 0.217 0.013 0.473 0.013 0.729 0 11.312-9.17 20.482-20.482 20.482-0.68 0-1.352-0.033-2.015-0.098zM843.52 337.28l-16.64-7.040-3.84-6.4-7.68-20.48-0.64-1.28-8.96-19.2 1.28-18.56 14.72-10.24 17.28 5.76 4.48 6.4 8.96 20.48 0.64 0.64v0.64l8.32 21.76-1.92 18.56-16 8.96zM193.92 316.8l-17.92-3.84-7.040-17.28 1.28-7.040 6.4-13.44v-1.28l8.96-18.56 0.64-0.64 10.24-17.92v-0.64l0.64-0.64 10.88-16.64 0.64-0.64v-0.64l10.24-13.44 16-8.32 16.64 8.32 3.2 17.92-3.2 6.4-8.96 12.8-0.64 0.64-9.6 15.36-0.64 0.64-8.96 16-0.64 0.64-8.32 17.28h-0.64l-5.12 12.8-14.080 12.16zM764.8 216.32l-5.76-4.48-14.72-15.36-0.64-0.64-14.72-14.080-0.64-0.64v-0.64l-7.68-16 8.96-16 18.56-1.92 6.4 3.2 1.28 1.28 16.64 16h0.64l0.64 0.64 15.36 16.64 5.12 17.28-11.52 14.72h-17.92zM295.040 170.24l-13.44-12.16 1.92-17.92 5.12-5.76 8.96-7.040h0.64l0.64-0.64 16.64-10.88 0.64-0.64 17.92-10.24 0.64-0.64 18.56-9.6h0.64v-0.64l19.2-8.32 17.92 1.28 10.24 15.36-5.76 17.28-5.76 3.84-17.92 7.68-0.64 0.64h-0.64l-16 8.32-0.64 0.64-16 8.96-0.64 0.64-14.72 9.6-1.28 0.64-8.32 6.4-17.92 3.2zM663.68 135.040l-7.040-1.92-18.56-8.32-1.28-0.64-19.2-7.040h-1.28v-0.64l-12.8-12.16 1.92-17.92 16-9.6 7.040 0.64 0.64 0.64h0.64l0.64 0.64 21.76 7.68 0.64 0.64h0.64l19.84 8.96 11.52 14.080-4.48 17.92-16.64 7.040zM467.2 102.4c-11.038-0.356-19.85-9.389-19.85-20.48 0-11.316 9.174-20.49 20.49-20.49 0.225 0 0.449 0.004 0.673 0.011 12.946-1.524 26.305-2.419 39.647-2.561 1.29-0.014 2.55 0 3.84 0 0.637 0 1.282-0.003 1.92 0 6.6 0.033 13.24 0.241 19.84 0.64 10.768 0.694 19.24 9.597 19.24 20.48 0 11.333-9.187 20.52-20.52 20.52-0.45 0-0.897-0.015-1.34-0.043-5.208-0.315-10.556-0.568-15.94-0.637-1.075-0.014-2.119 0-3.2 0-0.652 0-1.27-0.002-1.92 0-12.372 0.043-24.475 0.511-36.48 1.92-1.329 0.358-2.865 0.588-4.447 0.639-0.319 0.015-0.655 0.023-0.993 0.023s-0.673-0.008-1.007-0.024z" />
<glyph unicode="&#xe90c;" glyph-name="Upload-SVG" d="M480 800v-320h-320v-64h320v-320h64v320h320v64h-320v320h-64z" />
<glyph unicode="&#xe90d;" glyph-name="AddFileFilled" d="M122.88 960v-983.040h574.080c34.182-25.585 76.388-40.96 122.24-40.96 112.865 0 204.8 91.935 204.8 204.8 0 83.641-50.799 155.766-122.88 187.52v332.8l-298.88 298.88h-479.36zM593.92 910.72l257.92-257.92h-257.92v257.92zM819.2 304.64c90.729 0 163.84-73.111 163.84-163.84s-73.111-163.84-163.84-163.84c-90.729 0-163.84 73.111-163.84 163.84s73.111 163.84 163.84 163.84zM798.72 243.2v-81.92h-81.92v-40.96h81.92v-81.92h40.96v81.92h81.92v40.96h-81.92v81.92h-40.96z" />
<glyph unicode="&#xe90e;" glyph-name="AddFile" d="M122.88 960v-983.040h573.44c34.255-25.776 76.84-40.96 122.88-40.96 112.865 0 204.8 91.935 204.8 204.8 0 83.641-50.799 155.766-122.88 187.52v332.8l-5.76 6.4-286.72 286.72-6.4 5.76h-479.36zM163.84 919.040h409.6v-286.72h286.72v-291.2c-13.315 2.734-26.852 4.48-40.96 4.48-112.865 0-204.8-91.935-204.8-204.8 0-46.181 15.681-88.571 41.6-122.88h-492.16v901.12zM614.4 889.6l216.32-216.32h-216.32v216.32zM819.2 304.64c90.729 0 163.84-73.111 163.84-163.84s-73.111-163.84-163.84-163.84c-90.729 0-163.84 73.111-163.84 163.84s73.111 163.84 163.84 163.84zM798.72 243.2v-81.92h-81.92v-40.96h81.92v-81.92h40.96v81.92h81.92v40.96h-81.92v81.92h-40.96z" />
<glyph unicode="&#xe90f;" glyph-name="AdministrativeTools" d="M414.080 960c-10.035 0-18.862-7.368-20.48-17.28l-19.84-119.68c-24.637-7.086-48.22-16.635-70.4-28.8l-98.56 70.4c-8.151 5.857-19.154 5.146-26.24-1.92l-80-80c-7.025-7.045-7.634-18.089-1.92-26.24l69.12-99.2c-12.39-22.446-22.231-46.362-29.44-71.040l-119.040-19.84c-9.871-1.659-17.28-10.465-17.28-20.48v-112.64c0-9.933 6.851-18.12 16.64-19.84l119.68-21.12c7.148-24.637 17.009-48.553 29.44-71.040l-70.4-98.56c-5.816-8.151-5.146-19.154 1.92-26.24l80-80c7.045-7.025 18.089-7.634 26.24-1.92l99.84 69.76c22.385-12.329 45.885-22.354 70.4-29.44l19.84-119.68c1.638-9.871 10.465-17.28 20.48-17.28h112.64c0.676 0 2.79 0.061 5.76 0v-61.44c0-11.325 9.155-20.48 20.48-20.48h450.56c11.325 0 20.48 9.155 20.48 20.48v351.36c0 32.154-26.086 58.24-58.24 58.24h-171.52c3.256 8.806 7.020 18.232 9.6 26.24l120.96 21.12c9.81 1.72 17.28 9.907 17.28 19.84v112.64c0 10.035-7.368 18.862-17.28 20.48l-120.96 19.84c-7.086 24.289-16.655 47.662-28.8 69.76l70.4 100.48c5.714 8.131 5.105 19.195-1.92 26.24l-80 80c-7.107 7.107-18.109 7.777-26.24 1.92l-99.2-71.68c-22.303 12.349-45.967 22.354-70.4 29.44l-21.12 120.96c-1.72 9.789-9.907 16.64-19.84 16.64h-112.64zM471.040 639.36c82.944 0 150.4-67.476 150.4-150.4s-67.456-150.4-150.4-150.4c-82.924 0-150.4 67.476-150.4 150.4s67.456 150.4 150.4 150.4zM590.72 325.12h375.040c9.544 0 17.28-7.716 17.28-17.28v-3.2h-409.6v3.2c0 9.564 7.716 17.28 17.28 17.28zM573.44 263.68h409.6v-286.72h-409.6v286.72zM757.76 251.52l-14.72-14.080-68.48-68.48-26.24 22.4-15.36 13.44-26.88-31.36 15.36-12.8 40.96-35.2 14.72-12.8 95.36 95.36 14.080 14.72-28.8 28.8zM757.76 149.12l-14.72-14.080-68.48-68.48-26.24 22.4-15.36 13.44-26.88-31.36 15.36-12.8 40.96-35.2 14.72-12.8 95.36 95.36 14.080 14.72-28.8 28.8z" />
<glyph unicode="&#xe910;" glyph-name="AirportFilled" d="M958.080 956.16c-77.066 0-208.445-92.186-235.52-120.96l-138.24-138.24-491.52 66.56c-6.369 0.86-12.754-1.731-17.28-6.4l-69.76-71.68c-4.772-4.915-6.574-11.863-5.12-18.56s5.77-12.221 12.16-14.72l378.88-148.48-195.2-199.040h-94.080c-4.854 0-9.754-1.946-13.44-5.12l-81.92-69.12c-5.857-4.977-8.161-13.005-6.4-20.48s7.265-13.517 14.72-15.36l195.2-48 48-195.2c1.72-6.963 7.24-12.59 14.080-14.72 6.82-2.191 13.834-0.251 19.2 4.48l69.76 61.44c4.403 3.891 7.040 9.482 7.040 15.36v113.92l200.96 195.84 146.56-378.88c2.478-6.39 8.023-10.706 14.72-12.16 1.454-0.307 3.026-0.64 4.48-0.64 5.284 0 10.209 2.012 14.080 5.76l71.68 69.76c4.649 4.526 7.26 10.849 6.4 17.28l-66.56 491.52 138.24 138.24c28.303 28.283 167.214 215.9 104.32 281.6-11.121 10.629-26.455 16-45.44 16z" />
<glyph unicode="&#xe911;" glyph-name="Airport" d="M950.4 956.16c-6.55-0.488-13.275-1.8-19.84-3.2-26.259-5.599-54.439-17.795-81.92-32-54.752-28.302-104.346-64.123-125.44-86.4h-0.64l-138.24-137.6-491.52 66.56c-0.686 0.082-1.481 0.128-2.287 0.128-5.914 0-11.243-2.507-14.982-6.516l-69.771-71.692c-3.586-3.685-5.797-8.723-5.797-14.278 0-8.557 5.248-15.889 12.701-18.952l379.016-148.53-195.2-199.040h-94.080c-5.166-0.028-9.875-1.964-13.462-5.139l-81.898-69.101c-4.623-3.785-7.551-9.493-7.551-15.884 0-9.677 6.71-17.786 15.732-19.928l195.339-48.028 48-195.2c2.38-8.868 10.347-15.29 19.813-15.29 5.167 0 9.887 1.913 13.491 5.070l69.736 61.42c4.301 3.755 7.011 9.238 7.040 15.355v114.565l200.96 195.2 146.56-378.88c3.113-7.589 10.445-12.837 19.002-12.837 5.555 0 10.593 2.211 14.283 5.802l71.675 69.756c4.021 3.75 6.528 9.079 6.528 14.993 0 0.806-0.047 1.6-0.137 2.382l-66.551 491.425 138.24 138.24c21.241 21.241 57.355 72.033 85.76 126.72 14.203 27.343 26.393 55.162 32 81.28s5.717 53.602-12.8 72.96c-0.211 0.22-0.42 0.429-0.633 0.633-9.713 9.291-21.374 13.785-33.927 15.367-6.277 0.791-12.65 1.128-19.2 0.64zM952.32 914.56c11.684 0.778 18.51-1.597 21.76-4.48 3.891-4.378 6.796-15.467 2.56-35.2-4.313-20.090-14.971-45.647-28.16-71.040-26.379-50.785-64.505-102.265-78.080-115.84l-145.28-145.92c-3.987-3.746-6.471-9.053-6.471-14.94 0-0.598 0.026-1.191 0.076-1.776l66.555-492.084-41.6-40.32-147.2 378.24c-2.993 7.838-10.45 13.303-19.183 13.303-5.467 0-10.433-2.142-14.106-5.632l-229.111-223.352c-3.909-3.707-6.355-8.923-6.4-14.712v-113.928l-37.76-32.64-42.88 174.080c-1.909 7.23-7.49 12.811-14.577 14.688l-168.463 41.632 46.080 39.040h94.72c5.797 0.045 11.013 2.491 14.711 6.391l223.369 227.209c3.482 3.664 5.623 8.631 5.623 14.097 0 8.733-5.466 16.19-13.163 19.136l-378.38 148.527 40.32 42.24 492.16-66.56c0.509-0.045 1.102-0.071 1.7-0.071 5.887 0 11.194 2.483 14.93 6.46l145.93 145.291c11.817 12.555 64.179 51.707 115.2 78.080 25.511 13.187 51.411 23.839 71.68 28.16 4.977 1.061 9.545 1.661 13.44 1.92z" />
<glyph unicode="&#xe912;" glyph-name="APISettings" d="M446.72 919.040c-19.436 0-36.49-13.553-40.32-32.64l-8.96-45.44c-63.508-18.432-121.446-51.753-168.96-97.28l-43.52 14.72c-18.452 6.185-38.912-1.725-48.64-18.56l-64.64-112.64c-9.708-16.876-6.282-38.4 8.32-51.2l34.56-30.72c-8.008-32.522-12.16-65.024-12.16-97.28 0-32.195 4.132-64.717 12.16-97.28l-34.56-30.72c-14.602-12.82-18.028-34.324-8.32-51.2l64.64-112.64c9.708-16.855 30.167-24.847 48.64-18.56l43.52 14.72c47.555-45.568 105.492-78.848 168.96-97.28l8.96-45.44c3.871-19.026 20.905-32.64 40.32-32.64h130.56c19.456 0 36.49 13.553 40.32 32.64l8.96 45.44c63.488 18.412 121.426 51.712 168.96 97.28l43.52-14.72c18.473-6.267 38.272 1.725 48 18.56l65.28 112.64c9.728 16.855 6.303 38.38-8.32 51.2l-34.56 30.72c8.028 32.522 12.16 65.044 12.16 97.28 0 32.256-4.132 64.758-12.16 97.28l34.56 30.72c14.602 12.841 18.048 34.345 8.32 51.2l-64.64 112.64c-9.748 16.896-30.269 24.806-48.64 18.56l-43.52-14.72c-47.534 45.548-105.472 78.848-168.96 97.28l-8.96 45.44c-3.871 19.087-20.884 32.64-40.32 32.64h-130.56zM337.92 591.36c8.991 0 17.198-6.118 19.84-14.72l71.68-232.96c0.594-1.946 0.64-4.352 0.64-6.4v-12.16c0-11.325-9.175-20.48-20.48-20.48s-20.48 9.155-20.48 20.48v9.6l-9.6 31.36h-83.2l-9.6-31.36v-9.6c0-11.325-9.175-20.48-20.48-20.48s-20.48 9.155-20.48 20.48v12.16c0 2.048 0.046 4.434 0.64 6.4l71.68 232.96c2.642 8.602 10.849 14.72 19.84 14.72zM491.52 591.36h81.92c33.874 0 61.44-27.566 61.44-61.44v-61.44c0-33.874-27.566-61.44-61.44-61.44h-61.44v-81.92c0-11.325-9.175-20.48-20.48-20.48s-20.48 9.155-20.48 20.48v245.76c0 11.305 9.175 20.48 20.48 20.48zM696.32 591.36h40.96c11.325 0 20.48-9.175 20.48-20.48s-9.155-20.48-20.48-20.48v-204.8c11.325 0 20.48-9.155 20.48-20.48s-9.155-20.48-20.48-20.48h-40.96c-11.325 0-20.48 9.155-20.48 20.48s9.155 20.48 20.48 20.48v204.8c-11.325 0-20.48 9.175-20.48 20.48s9.155 20.48 20.48 20.48zM512 550.4v-102.4h61.44c11.305 0 20.48 9.196 20.48 20.48v61.44c0 11.284-9.175 20.48-20.48 20.48h-61.44zM337.92 501.12l-28.8-94.080h57.6l-28.8 94.080z" />
<glyph unicode="&#xe913;" glyph-name="BriefcaseFilled" d="M409.6 898.56c-33.691 0-61.44-27.749-61.44-61.44v-61.44h-286.72c-33.874 0-61.44-27.566-61.44-61.44v-266.24c0-33.874 27.566-61.44 61.44-61.44h901.12c33.874 0 61.44 27.566 61.44 61.44v266.24c0 33.874-27.566 61.44-61.44 61.44h-286.72v61.44c0 33.691-27.749 61.44-61.44 61.44h-204.8zM409.6 857.6h204.8c11.529 0 20.48-8.951 20.48-20.48v-61.44h-245.76v61.44c0 11.529 8.951 20.48 20.48 20.48zM512 509.44c22.61 0 40.96-18.35 40.96-40.96s-18.35-40.96-40.96-40.96c-22.61 0-40.96 18.35-40.96 40.96s18.35 40.96 40.96 40.96zM0 407.040v-348.16c0-33.874 27.566-61.44 61.44-61.44h901.12c33.874 0 61.44 27.566 61.44 61.44v348.16c0-33.874-27.566-61.44-61.44-61.44h-901.12c-33.874 0-61.44 27.566-61.44 61.44z" />
<glyph unicode="&#xe914;" glyph-name="Briefcase" d="M409.6 898.56c-33.691 0-61.44-27.749-61.44-61.44v-61.44h-286.72c-33.691 0-61.44-27.749-61.44-61.44v-303.36c-0.057-0.576-0.090-1.244-0.090-1.92s0.033-1.344 0.097-2.004l-0.007-348.076c0-33.691 27.749-61.44 61.44-61.44h901.12c33.691 0 61.44 27.749 61.44 61.44v655.36c0 33.691-27.749 61.44-61.44 61.44h-286.72v61.44c0 33.691-27.749 61.44-61.44 61.44h-204.8zM409.6 857.6h204.8c11.529 0 20.48-8.951 20.48-20.48v-61.44h-245.76v61.44c0 11.529 8.951 20.48 20.48 20.48zM61.44 734.72h901.12c11.529 0 20.48-8.951 20.48-20.48v-304c-0.014-0.287-0.023-0.622-0.023-0.96s0.008-0.673 0.024-1.007l-0.002-1.233c0-11.529-8.951-20.48-20.48-20.48h-901.12c-11.529 0-20.48 8.951-20.48 20.48 0.057 0.576 0.090 1.244 0.090 1.92s-0.033 1.344-0.097 2.004l0.007 303.276c0 11.529 8.951 20.48 20.48 20.48zM512 509.44c-22.622 0-40.96-18.338-40.96-40.96s18.338-40.96 40.96-40.96c22.622 0 40.96 18.338 40.96 40.96s-18.338 40.96-40.96 40.96zM40.96 349.44c6.467-2.34 13.25-3.84 20.48-3.84h901.12c7.23 0 14.013 1.5 20.48 3.84v-290.56c0-11.529-8.951-20.48-20.48-20.48h-901.12c-11.529 0-20.48 8.951-20.48 20.48v290.56z" />
<glyph unicode="&#xe915;" glyph-name="CalendarFilled" d="M225.28 960c-12.288 0-20.48-8.192-20.48-20.48v-122.88c0-12.288 8.192-20.48 20.48-20.48h40.96c12.288 0 20.48 8.192 20.48 20.48v122.88c0 12.288-8.192 20.48-20.48 20.48h-40.96zM757.76 960c-12.288 0-20.48-8.192-20.48-20.48v-122.88c0-12.288 8.192-20.48 20.48-20.48h40.96c12.288 0 20.48 8.192 20.48 20.48v122.88c0 12.288-8.192 20.48-20.48 20.48h-40.96zM40.96 878.080c-23.736 0-40.96-17.224-40.96-40.96v-163.84h1024v163.84c0 23.736-17.224 40.96-40.96 40.96h-122.88v-61.44c0-35.021-26.419-61.44-61.44-61.44h-40.96c-35.021 0-61.44 26.419-61.44 61.44v61.44h-368.64v-61.44c0-35.021-26.419-61.44-61.44-61.44h-40.96c-35.021 0-61.44 26.419-61.44 61.44v61.44h-122.88zM0 632.32v-655.36c0-23.736 17.224-40.96 40.96-40.96h942.080c23.736 0 40.96 17.224 40.96 40.96v655.36h-1024zM163.84 488.96h143.36v-102.4h-143.36v102.4zM348.16 488.96h143.36v-102.4h-143.36v102.4zM532.48 488.96h143.36v-102.4h-143.36v102.4zM716.8 488.96h143.36v-102.4h-143.36v102.4zM163.84 345.6h143.36v-102.4h-143.36v102.4zM348.16 345.6h143.36v-102.4h-143.36v102.4zM532.48 345.6h143.36v-102.4h-143.36v102.4zM716.8 345.6h143.36v-102.4h-143.36v102.4zM163.84 202.24h143.36v-102.4h-143.36v102.4zM348.16 202.24h143.36v-102.4h-143.36v102.4zM532.48 202.24h143.36v-102.4h-143.36v102.4zM716.8 202.24h143.36v-102.4h-143.36v102.4z" />
<glyph unicode="&#xe916;" glyph-name="Calendar" d="M225.28 960c-10.695 0-21.718-3.798-29.44-11.52s-11.52-18.745-11.52-29.44v-40.96h-143.36c-10.695 0-21.718-3.798-29.44-11.52s-11.52-18.745-11.52-29.44v-860.16c0-10.695 3.798-21.718 11.52-29.44s18.745-11.52 29.44-11.52h942.080c10.695 0 21.718 3.798 29.44 11.52s11.52 18.745 11.52 29.44v860.16c0 10.695-3.798 21.718-11.52 29.44s-18.745 11.52-29.44 11.52h-143.36v40.96c0 10.695-3.798 21.718-11.52 29.44s-18.745 11.52-29.44 11.52h-40.96c-10.695 0-21.718-3.798-29.44-11.52s-11.52-18.745-11.52-29.44v-40.96h-409.6v40.96c0 10.695-3.798 21.718-11.52 29.44s-18.745 11.52-29.44 11.52h-40.96zM225.28 919.040h40.96v-122.88h-40.96v122.88zM757.76 919.040h40.96v-122.88h-40.96v122.88zM40.96 837.12h143.36v-40.96c0-10.695 3.798-21.718 11.52-29.44s18.745-11.52 29.44-11.52h40.96c10.695 0 21.718 3.798 29.44 11.52s11.52 18.745 11.52 29.44v40.96h409.6v-40.96c0-10.695 3.798-21.718 11.52-29.44s18.745-11.52 29.44-11.52h40.96c10.695 0 21.718 3.798 29.44 11.52s11.52 18.745 11.52 29.44v40.96h143.36v-163.84h-942.080v163.84zM40.96 632.32h942.080v-655.36h-942.080v655.36zM139.52 529.92c-9.542-1.869-16.643-10.165-16.643-20.119 0-0.127 0.001-0.254 0.003-0.38v-430.061c0.001-11.31 9.17-20.479 20.48-20.48h737.28c11.31 0.001 20.479 9.17 20.48 20.48v430.080c-0.001 11.31-9.17 20.479-20.48 20.48h-737.28c-0.287 0.014-0.622 0.023-0.96 0.023s-0.673-0.008-1.007-0.024c-0.24 0.016-0.575 0.024-0.913 0.024s-0.673-0.008-1.007-0.024zM163.84 488.96h143.36v-102.4h-143.36v102.4zM348.16 488.96h143.36v-102.4h-143.36v102.4zM532.48 488.96h143.36v-102.4h-143.36v102.4zM716.8 488.96h143.36v-102.4h-143.36v102.4zM163.84 345.6h143.36v-102.4h-143.36v102.4zM348.16 345.6h143.36v-102.4h-143.36v102.4zM532.48 345.6h143.36v-102.4h-143.36v102.4zM716.8 345.6h143.36v-102.4h-143.36v102.4zM163.84 202.24h143.36v-102.4h-143.36v102.4zM348.16 202.24h143.36v-102.4h-143.36v102.4zM532.48 202.24h143.36v-102.4h-143.36v102.4zM716.8 202.24h143.36v-102.4h-143.36v102.4z" />
<glyph unicode="&#xe917;" glyph-name="Cancel" d="M512 898.56c-248.595 0-450.56-201.965-450.56-450.56s201.965-450.56 450.56-450.56c248.595 0 450.56 201.965 450.56 450.56s-201.965 450.56-450.56 450.56zM512 857.6c226.458 0 409.6-183.142 409.6-409.6s-183.142-409.6-409.6-409.6c-226.458 0-409.6 183.142-409.6 409.6s183.142 409.6 409.6 409.6zM336 643.2c-1.007-0.185-1.868-0.407-2.705-0.681-9.487-1.753-16.681-10.093-16.681-20.112 0-5.942 2.53-11.293 6.572-15.035l159.373-159.372-159.36-159.36c-3.768-3.767-6.098-8.972-6.098-14.721 0-11.497 9.32-20.817 20.817-20.817 5.749 0 10.954 2.33 14.721 6.098l159.36 159.36 159.36-159.36c3.767-3.768 8.972-6.098 14.721-6.098 11.497 0 20.817 9.32 20.817 20.817 0 5.749-2.33 10.954-6.098 14.721l-159.36 159.36 159.36 159.36c4.018 3.75 6.523 9.077 6.523 14.989 0 11.312-9.17 20.482-20.482 20.482-1.173 0-2.323-0.099-3.442-0.288-4.653-0.513-8.858-2.613-12.042-5.746l-159.357-159.357-159.36 159.36c-3.746 3.987-9.053 6.471-14.94 6.471-0.598 0-1.191-0.026-1.776-0.076z" />
<glyph unicode="&#xe918;" glyph-name="CellPhone" d="M262.4 960c-9.542-1.869-16.643-10.165-16.643-20.119 0-0.127 0.001-0.254 0.003-0.38v-798.701c0-38.35 18.824-69.492 42.88-90.24s53.035-32.64 80-32.64h307.2c56.227 0 102.4 46.173 102.4 102.4v634.88c0 56.227-46.173 102.4-102.4 102.4h-327.68v81.92c-0.001 11.31-9.17 20.479-20.48 20.48h-61.44c-0.287 0.014-0.622 0.023-0.96 0.023s-0.673-0.008-1.007-0.024c-0.24 0.016-0.575 0.024-0.913 0.024s-0.673-0.008-1.007-0.024zM286.72 919.040h20.48v-81.92c0.001-11.31 9.17-20.479 20.48-20.48h348.16c33.885 0 61.44-27.555 61.44-61.44v-634.88c0-33.885-27.555-61.44-61.44-61.44h-307.2c-13.995 0-36.216 7.82-53.12 22.4s-28.8 34.382-28.8 59.52v778.24zM389.12 755.2c-33.699 0-61.44-27.741-61.44-61.44v-163.84c0-33.699 27.741-61.44 61.44-61.44h245.76c33.699 0 61.44 27.741 61.44 61.44v163.84c0 33.699-27.741 61.44-61.44 61.44h-245.76zM389.12 714.24h245.76c11.357 0 20.48-9.123 20.48-20.48v-163.84c0-11.357-9.123-20.48-20.48-20.48h-245.76c-11.357 0-20.48 9.123-20.48 20.48v163.84c0 11.357 9.123 20.48 20.48 20.48zM389.12 427.52c-22.622 0-40.96-18.338-40.96-40.96s18.338-40.96 40.96-40.96c22.622 0 40.96 18.338 40.96 40.96s-18.338 40.96-40.96 40.96zM512 427.52c-22.622 0-40.96-18.338-40.96-40.96s18.338-40.96 40.96-40.96c22.622 0 40.96 18.338 40.96 40.96s-18.338 40.96-40.96 40.96zM634.88 427.52c-22.622 0-40.96-18.338-40.96-40.96s18.338-40.96 40.96-40.96c22.622 0 40.96 18.338 40.96 40.96s-18.338 40.96-40.96 40.96zM389.12 304.64c-22.622 0-40.96-18.338-40.96-40.96s18.338-40.96 40.96-40.96c22.622 0 40.96 18.338 40.96 40.96s-18.338 40.96-40.96 40.96zM512 304.64c-22.622 0-40.96-18.338-40.96-40.96s18.338-40.96 40.96-40.96c22.622 0 40.96 18.338 40.96 40.96s-18.338 40.96-40.96 40.96zM634.88 304.64c-22.622 0-40.96-18.338-40.96-40.96s18.338-40.96 40.96-40.96c22.622 0 40.96 18.338 40.96 40.96s-18.338 40.96-40.96 40.96zM389.12 181.76c-22.622 0-40.96-18.338-40.96-40.96s18.338-40.96 40.96-40.96c22.622 0 40.96 18.338 40.96 40.96s-18.338 40.96-40.96 40.96zM512 181.76c-22.622 0-40.96-18.338-40.96-40.96s18.338-40.96 40.96-40.96c22.622 0 40.96 18.338 40.96 40.96s-18.338 40.96-40.96 40.96zM634.88 181.76c-22.622 0-40.96-18.338-40.96-40.96s18.338-40.96 40.96-40.96c22.622 0 40.96 18.338 40.96 40.96s-18.338 40.96-40.96 40.96z" />
<glyph unicode="&#xe919;" glyph-name="ChatFilled" d="M389.12 960c-212.544 0-389.12-153.449-389.12-346.24 0-93.266 41.866-177.82 108.8-240-9.825-29.011-30.701-52.16-53.12-70.4-12.455-10.134-24.614-18.866-34.56-27.52-4.973-4.327-9.483-8.134-13.44-14.080s-7.881-16.125-5.12-26.24l2.56-7.68 7.040-4.48c21.272-12.054 47.12-13.462 74.24-11.52s56.4 8.097 85.12 16c39.638 10.908 73.497 23.838 101.76 35.2 57.103-132.485 199.441-220.8 361.6-220.8 27.546 0 55.27 3.768 81.28 7.68 28.037-12.431 150.195-64.64 234.88-64.64 24.31 0 43.208 4.301 58.24 12.8l7.68 4.48 1.92 7.68c6.001 21.955-12.539 37.274-36.48 56.32-24.044 19.128-55.956 44.57-69.76 80 69.796 64.287 109.44 151.665 109.44 241.92 0 147.381-107.51 280.519-262.4 327.68-48.845 142.038-197.328 243.84-370.56 243.84zM389.12 919.040c155.98 0 286.121-90.057 330.24-213.12 0.16-0.446 0.482-0.833 0.64-1.28 0.221-0.626 0.423-1.293 0.64-1.92 2.782-8.074 5.012-15.983 7.040-24.32 1.422-5.778 2.156-11.386 3.2-17.28 0.262-1.492 0.402-2.981 0.64-4.48 0.869-5.422 2.022-11.131 2.56-16.64 0.081-0.83-0.074-1.728 0-2.56 0.67-7.769 1.28-15.765 1.28-23.68 0-10.516-0.729-20.474-1.92-30.72-1.184-10.431-2.763-20.614-5.12-30.72-4.646-19.846-11.659-38.712-20.48-56.96s-19.474-35.603-32-51.84c-6.263-8.118-13.379-16.142-20.48-23.68s-14.52-14.853-22.4-21.76c-7.753-6.801-15.865-13.699-24.32-19.84-43.004-31.119-95.071-53.181-151.68-63.36-22.644-4.072-45.763-6.4-69.76-6.4-13.853 0-27.639 0.705-40.96 1.92-0.639 0.058-1.283-0.062-1.92 0-1.753 0.169-3.405 0.448-5.12 0.64-4.723 0.529-9.634 1.216-14.080 1.92-6.060 0.96-11.694 1.91-17.28 3.2l-6.4 1.92-6.4-2.56c-26.37-11.146-80.225-33.732-134.4-48.64-27.088-7.454-54.512-13.078-77.44-14.72-10.163-0.728-14.415 2.326-22.4 3.2 6.573 5.102 12.105 9.186 20.48 16 27.314 22.224 60.881 54.403 71.68 102.4l2.56 12.16-8.96 8.32c-65.549 55.909-105.6 133.732-105.6 219.52 0 167.657 155.2 305.28 348.16 305.28z" />
<glyph unicode="&#xe91a;" glyph-name="Checklist" d="M20.48 960c-11.305 0-20.48-9.175-20.48-20.48v-245.76c0-11.305 9.175-20.48 20.48-20.48h245.76c11.305 0 20.48 9.175 20.48 20.48v245.76c0 11.305-9.175 20.48-20.48 20.48h-245.76zM209.92 891.52l30.72-26.88-105.6-117.76-87.040 74.88 26.88 30.72 56.32-48 78.72 87.040zM409.6 837.12v-40.96h614.4v40.96h-614.4zM20.48 591.36c-11.305 0-20.48-9.175-20.48-20.48v-245.76c0-11.325 9.175-20.48 20.48-20.48h245.76c11.305 0 20.48 9.155 20.48 20.48v245.76c0 11.305-9.175 20.48-20.48 20.48h-245.76zM209.92 522.88l30.72-26.88-105.6-117.76-87.040 74.88 26.88 30.72 56.32-48 78.72 87.040zM409.6 468.48v-40.96h614.4v40.96h-614.4zM20.48 222.72c-11.305 0-20.48-9.155-20.48-20.48v-245.76c0-11.325 9.175-20.48 20.48-20.48h245.76c11.305 0 20.48 9.155 20.48 20.48v245.76c0 11.325-9.175 20.48-20.48 20.48h-245.76zM409.6 99.84v-40.96h614.4v40.96h-614.4z" />
<glyph unicode="&#xe91b;" glyph-name="ChristmasStar" d="M509.44 960c-7.602-0.924-13.852-5.895-16.591-12.663l-128.049-317.577-341.12-23.68c-10.452-1.017-18.554-9.758-18.554-20.391 0-6.154 2.714-11.674 7.010-15.428l262.424-219.541-83.2-332.16c-0.4-1.512-0.629-3.249-0.629-5.039 0-11.312 9.17-20.482 20.482-20.482 4.028 0 7.784 1.163 10.951 3.17l289.836 181.71 289.92-181.76c3.084-1.958 6.84-3.121 10.867-3.121 11.312 0 20.482 9.17 20.482 20.482 0 1.79-0.23 3.526-0.661 5.181l-83.168 332.018 262.4 219.52c4.32 3.775 7.034 9.295 7.034 15.449 0 10.633-8.103 19.374-18.47 20.384l-341.204 23.687-128 317.44c-3.077 7.665-10.447 12.979-19.058 12.979-0.953 0-1.89-0.065-2.808-0.191zM512 883.84l113.28-281.6c2.979-7.254 9.803-12.359 17.868-12.798l302.772-20.482-232.96-195.2c-4.399-3.779-7.168-9.348-7.168-15.564 0-1.978 0.28-3.891 0.804-5.7l74.204-294.895-257.92 161.92c-3.086 1.963-6.847 3.129-10.88 3.129s-7.794-1.166-10.963-3.178l-257.837-161.87 74.24 295.040c0.487 1.665 0.768 3.578 0.768 5.556 0 6.216-2.769 11.785-7.141 15.541l-232.987 195.223 302.72 20.48c8.117 0.441 14.941 5.546 17.87 12.664l113.33 281.736z" />
<glyph unicode="&#xe91c;" glyph-name="CircledChevronDownFilled" d="M512 919.040c-259.727 0-471.040-211.313-471.040-471.040 0-259.748 211.313-471.040 471.040-471.040 259.748 0 471.040 211.292 471.040 471.040 0 259.727-211.292 471.040-471.040 471.040zM731.279 494.961l-204.8-204.8c-3.994-3.994-9.236-6.001-14.479-6.001s-10.486 2.007-14.479 6.001l-204.8 204.8c-8.008 8.008-8.008 20.951 0 28.959s20.951 8.008 28.959 0l190.321-190.321 190.321 190.321c8.008 8.008 20.951 8.008 28.959 0s8.008-20.951 0-28.959z" />
<glyph unicode="&#xe91d;" glyph-name="CircledChevronDown" d="M512 919.040c-259.906 0-471.040-211.134-471.040-471.040s211.134-471.040 471.040-471.040c259.906 0 471.040 211.134 471.040 471.040s-211.134 471.040-471.040 471.040zM512 878.080c237.769 0 430.080-192.311 430.080-430.080s-192.311-430.080-430.080-430.080c-237.769 0-430.080 192.311-430.080 430.080s192.311 430.080 430.080 430.080zM305.28 530.56c-1.007-0.185-1.868-0.407-2.705-0.681-9.487-1.753-16.681-10.093-16.681-20.112 0-5.942 2.53-11.293 6.572-15.035l204.813-204.812c3.729-3.85 8.945-6.24 14.72-6.24s10.991 2.39 14.715 6.235l204.805 204.805c3.768 3.767 6.098 8.972 6.098 14.721 0 11.497-9.32 20.817-20.817 20.817-5.749 0-10.954-2.33-14.721-6.098l-190.080-190.080-190.080 190.080c-3.746 3.987-9.053 6.471-14.94 6.471-0.598 0-1.191-0.026-1.776-0.076z" />
<glyph unicode="&#xe91e;" glyph-name="CircledChevronUpFilled" d="M512 919.040c-259.727 0-471.040-211.313-471.040-471.040 0-259.748 211.313-471.040 471.040-471.040 259.748 0 471.040 211.292 471.040 471.040 0 259.727-211.292 471.040-471.040 471.040zM731.279 372.081c-3.994-3.994-9.236-6.001-14.479-6.001s-10.486 2.007-14.479 6.001l-190.321 190.321-190.321-190.321c-8.008-8.008-20.951-8.008-28.959 0s-8.008 20.951 0 28.959l204.8 204.8c8.008 8.008 20.951 8.008 28.959 0l204.8-204.8c8.008-8.008 8.008-20.951 0-28.959z" />
<glyph unicode="&#xe91f;" glyph-name="CircledChevronUp" d="M512 919.040c-259.906 0-471.040-211.134-471.040-471.040s211.134-471.040 471.040-471.040c259.906 0 471.040 211.134 471.040 471.040s-211.134 471.040-471.040 471.040zM512 878.080c237.769 0 430.080-192.311 430.080-430.080s-192.311-430.080-430.080-430.080c-237.769 0-430.080 192.311-430.080 430.080s192.311 430.080 430.080 430.080zM509.44 611.84c-4.774-0.53-8.978-2.63-12.163-5.763l-204.797-204.797c-3.768-3.767-6.098-8.972-6.098-14.721 0-11.497 9.32-20.817 20.817-20.817 5.749 0 10.954 2.33 14.721 6.098l190.080 190.080 190.080-190.080c3.767-3.768 8.972-6.098 14.721-6.098 11.497 0 20.817 9.32 20.817 20.817 0 5.749-2.33 10.954-6.098 14.721l-204.8 204.8c-3.702 3.682-8.806 5.958-14.441 5.958-1.001 0-1.986-0.072-2.949-0.211z" />
<glyph unicode="&#xe920;" glyph-name="CircledDown2Filled" d="M513.167 915.538c-259.727 0-471.040-211.313-471.040-471.040 0-259.748 211.313-471.040 471.040-471.040 259.748 0 471.040 211.292 471.040 471.040 0 259.727-211.292 471.040-471.040 471.040zM690.319 351.601l-163.82-163.82c-1.884-1.905-4.157-3.4-6.676-4.444-2.499-1.024-5.161-1.577-7.823-1.577s-5.325 0.553-7.823 1.577c-2.519 1.044-4.772 2.54-6.676 4.444l-163.82 163.82c-8.008 8.008-8.008 20.951 0 28.959s20.951 8.008 28.959 0l128.881-128.881v442.081c0 11.305 9.175 20.48 20.48 20.48s20.48-9.175 20.48-20.48v-442.081l128.881 128.881c8.008 8.008 20.951 8.008 28.959 0s8.008-20.951 0-28.959z" />
<glyph unicode="&#xe921;" glyph-name="CircledDown2" d="M512 919.040c-259.906 0-471.040-211.134-471.040-471.040s211.134-471.040 471.040-471.040c259.906 0 471.040 211.134 471.040 471.040s-211.134 471.040-471.040 471.040zM512 878.080c237.769 0 430.080-192.311 430.080-430.080s-192.311-430.080-430.080-430.080c-237.769 0-430.080 192.311-430.080 430.080s192.311 430.080 430.080 430.080zM510.080 714.88c-1.007-0.185-1.868-0.407-2.705-0.681-9.083-2.078-15.861-10.221-15.861-19.946 0-0.173 0.002-0.346 0.006-0.519l-0.001-441.574-128.64 128.64c-3.73 3.858-8.951 6.253-14.733 6.253-1.583 0-3.125-0.18-4.605-0.52-9.494-1.768-16.688-10.107-16.688-20.126 0-5.942 2.53-11.293 6.572-15.035l161.293-160.652c0.44-0.744 0.862-1.37 1.317-1.971l1.243-1.229c0.413-0.45 0.83-0.867 1.265-1.266 0.11-0.015 0.223-0.016 0.335-0.016s0.225 0.001 0.337 0.003c1.282-1.225 2.754-2.289 4.354-3.147 0.205-0.055 0.317-0.056 0.43-0.056s0.225 0.001 0.337 0.003c0.289-0.174 0.709-0.388 1.137-0.587 0.221-0.054 0.334-0.055 0.446-0.055s0.225 0.001 0.337 0.003c0.468-0.2 1.107-0.418 1.759-0.605 1.106-0.195 2.215-0.287 3.345-0.287s2.238 0.091 3.318 0.267c0.073-0.022 0.297-0.026 0.522-0.026s0.449 0.004 0.673 0.011c1.905 0.45 3.613 1.11 5.195 1.973 2.702 1.364 5.053 3.306 6.899 5.662l162.594 161.965c3.768 3.767 6.098 8.972 6.098 14.721 0 11.497-9.32 20.817-20.817 20.817-5.749 0-10.954-2.33-14.721-6.098l-128.64-128.64v441.6c0.008 0.217 0.013 0.473 0.013 0.729 0 11.312-9.17 20.482-20.482 20.482-0.68 0-1.352-0.033-2.015-0.098z" />
<glyph unicode="&#xe922;" glyph-name="CircledUp2Filled" d="M512 919.040c-259.727 0-471.040-211.313-471.040-471.040 0-259.748 211.313-471.040 471.040-471.040 259.748 0 471.040 211.292 471.040 471.040 0 259.727-211.292 471.040-471.040 471.040zM690.319 515.441c-3.994-3.994-9.236-6.001-14.479-6.001s-10.486 2.007-14.479 6.001l-128.881 128.881v-442.081c0-11.325-9.175-20.48-20.48-20.48s-20.48 9.155-20.48 20.48v442.081l-128.881-128.881c-8.008-8.008-20.951-8.008-28.959 0s-8.008 20.951 0 28.959l163.84 163.84c1.884 1.884 4.157 3.379 6.656 4.424 5.018 2.068 10.65 2.068 15.647 0 2.499-1.044 4.772-2.54 6.656-4.424l163.84-163.84c8.008-8.008 8.008-20.951 0-28.959z" />
<glyph unicode="&#xe923;" glyph-name="CircledUp2" d="M512 919.040c-259.906 0-471.040-211.134-471.040-471.040s211.134-471.040 471.040-471.040c259.906 0 471.040 211.134 471.040 471.040s-211.134 471.040-471.040 471.040zM512 878.080c237.769 0 430.080-192.311 430.080-430.080s-192.311-430.080-430.080-430.080c-237.769 0-430.080 192.311-430.080 430.080s192.311 430.080 430.080 430.080zM510.080 714.88c-1.007-0.185-1.868-0.407-2.705-0.681-0.652-0.181-1.29-0.399-1.914-0.647-0.658-0.174-1.297-0.392-1.92-0.64-1.322-0.71-2.581-1.561-3.731-2.536-0.934-0.591-1.77-1.223-2.552-1.915-0.911-0.933-1.754-1.98-2.49-3.103l-161.328-160.718c-3.768-3.767-6.098-8.972-6.098-14.721 0-11.497 9.32-20.817 20.817-20.817 5.749 0 10.954 2.33 14.721 6.098l128.64 128.64v-441.6c-0.001-0.086-0.002-0.188-0.002-0.29 0-11.312 9.17-20.482 20.482-20.482s20.482 9.17 20.482 20.482c0 0.102-0.001 0.204-0.002 0.305v441.585l128.64-128.64c3.767-3.768 8.972-6.098 14.721-6.098 11.497 0 20.817 9.32 20.817 20.817 0 5.749-2.33 10.954-6.098 14.721l-161.28 160.64c-1.54 2.302-3.458 4.22-5.686 5.713-2.259 1.558-4.84 2.673-7.624 3.225-1.666 0.434-3.43 0.672-5.249 0.672-0.225 0-0.45-0.004-0.674-0.011z" />
<glyph unicode="&#xe924;" glyph-name="ClearFiltersFilled" d="M20.48 960c-11.305 0-20.48-9.175-20.48-20.48v-61.44c0-5.222 2.176-10.271 5.76-14.080l295.040-313.6h299.52l295.040 313.6c0.717 0.758 1.347 1.72 1.92 2.56 0.881 1.29 1.987 2.365 2.56 3.84 0.594 1.516 0.415 3.523 0.64 5.12 0.143 0.983 0.64 1.556 0.64 2.56v61.44c0 11.305-9.155 20.48-20.48 20.48h-860.16zM327.68 509.44v-348.16c0-7.209 4.076-13.594 10.24-17.28l204.8-122.88c3.256-1.946 6.595-3.2 10.24-3.2 3.482 0 7.107 0.778 10.24 2.56 6.431 3.645 10.24 10.547 10.24 17.92v471.040h-245.76zM673.92 305.28c-1.007-0.185-1.868-0.407-2.705-0.681-9.487-1.753-16.681-10.093-16.681-20.112 0-5.942 2.53-11.293 6.572-15.035l149.133-149.132-149.12-149.12c-3.768-3.767-6.098-8.972-6.098-14.721 0-11.497 9.32-20.817 20.817-20.817 5.749 0 10.954 2.33 14.721 6.098l149.12 149.12 149.12-149.12c3.767-3.768 8.972-6.098 14.721-6.098 11.497 0 20.817 9.32 20.817 20.817 0 5.749-2.33 10.954-6.098 14.721l-149.12 149.12 149.12 149.12c4.018 3.75 6.523 9.077 6.523 14.989 0 11.312-9.17 20.482-20.482 20.482-1.173 0-2.323-0.099-3.442-0.288-4.653-0.513-8.858-2.613-12.042-5.746l-149.117-149.117-149.12 149.12c-3.746 3.987-9.053 6.471-14.94 6.471-0.598 0-1.191-0.026-1.776-0.076z" />
<glyph unicode="&#xe925;" glyph-name="ClearFilters" d="M16.64 960c-9.542-1.869-16.643-10.165-16.643-20.119 0-0.127 0.001-0.254 0.003-0.38v-61.421c0.044-5.478 2.232-10.437 5.765-14.085l321.915-341.755v-360.96c0.171-7.364 4.203-13.75 10.143-17.228l204.897-122.932c2.938-1.726 6.472-2.745 10.243-2.745 11.151 0 20.221 8.912 20.477 20.001v483.864l318.72 338.56c0.22 0.211 0.429 0.42 0.633 0.633l2.567 2.567c0.933 0.952 1.776 1.999 2.512 3.122 0.498 0.491 0.915 0.908 1.314 1.343 1.179 2.452 1.881 5.305 1.933 8.317 0.007 0.209 0.010 0.433 0.010 0.658s-0.004 0.449-0.011 0.673c0.041 0.446 0.063 1.004 0.063 1.567s-0.023 1.121-0.067 1.673l0.005 58.167c-0.001 11.31-9.17 20.479-20.48 20.48h-860.16c-0.287 0.014-0.622 0.023-0.96 0.023s-0.673-0.008-1.007-0.024c-0.24 0.016-0.575 0.024-0.913 0.024s-0.673-0.008-1.007-0.024zM40.96 919.040h819.2v-33.28l-316.16-335.36h-186.88l-316.16 335.36v33.28zM368.64 509.44h163.84v-435.2l-163.84 97.92v337.28zM673.92 305.28c-1.007-0.185-1.868-0.407-2.705-0.681-9.487-1.753-16.681-10.093-16.681-20.112 0-5.942 2.53-11.293 6.572-15.035l149.133-149.132-149.12-149.12c-3.768-3.767-6.098-8.972-6.098-14.721 0-11.497 9.32-20.817 20.817-20.817 5.749 0 10.954 2.33 14.721 6.098l149.12 149.12 149.12-149.12c3.767-3.768 8.972-6.098 14.721-6.098 11.497 0 20.817 9.32 20.817 20.817 0 5.749-2.33 10.954-6.098 14.721l-149.12 149.12 149.12 149.12c4.018 3.75 6.523 9.077 6.523 14.989 0 11.312-9.17 20.482-20.482 20.482-1.173 0-2.323-0.099-3.442-0.288-4.653-0.513-8.858-2.613-12.042-5.746l-149.117-149.117-149.12 149.12c-3.746 3.987-9.053 6.471-14.94 6.471-0.598 0-1.191-0.026-1.776-0.076z" />
<glyph unicode="&#xe926;" glyph-name="Cloud" d="M862.781 504.177c0.205 3.932 0.307 7.741 0.307 11.489 0 148.5-120.812 269.292-269.312 269.292-102.584 0-196.26-59.31-241.254-150.139-23.224 15.38-50.463 23.634-78.991 23.634-75.837 0-138.138-59.126-143.217-133.693-77.455-28.18-130.314-102.523-130.314-185.938 0-109.179 88.842-198.021 198.042-198.021h643.645c100.516 0 182.313 81.777 182.313 182.292 0 93.389-70.595 170.598-161.219 181.084z" />
<glyph unicode="&#xe927;" glyph-name="Code" d="M61.44 898.56c-33.874 0-61.44-27.566-61.44-61.44v-61.44h1024v61.44c0 33.874-27.566 61.44-61.44 61.44h-901.12zM0 734.72v-737.28h1024v737.28h-1024zM593.92 652.8c2.659 0.032 5.079-0.22 7.68-1.28 10.445-4.301 15.8-16.435 11.52-26.88l-184.32-450.56c-3.256-7.946-11.131-12.8-19.2-12.8-2.58 0-5.14 0.236-7.68 1.28-10.465 4.28-15.8 16.394-11.52 26.88l184.32 450.56c3.21 7.864 11.223 12.703 19.2 12.8zM325.12 529.92c7.924 0.943 16.271-2.883 20.48-10.24 5.612-9.81 2.13-22.548-7.68-28.16l-112-64 112-64c9.81-5.612 13.292-18.35 7.68-28.16-3.768-6.615-10.813-10.24-17.92-10.24-3.441 0-7.045 0.717-10.24 2.56l-143.36 81.92c-6.39 3.645-10.24 10.588-10.24 17.92 0 7.352 3.85 14.275 10.24 17.92l143.36 81.92c2.458 1.398 5.039 2.246 7.68 2.56zM698.88 529.92c2.642-0.317 5.228-1.157 7.68-2.56l143.36-81.92c6.39-3.645 10.24-10.568 10.24-17.92 0-7.332-3.85-14.275-10.24-17.92l-143.36-81.92c-3.195-1.843-6.799-2.56-10.24-2.56-7.127 0-14.152 3.625-17.92 10.24-5.612 9.81-2.13 22.548 7.68 28.16l112 64-112 64c-9.81 5.612-13.292 18.35-7.68 28.16 4.193 7.373 12.554 11.19 20.48 10.24z" />
<glyph unicode="&#xe928;" glyph-name="Coins" d="M1024 402.104c0-37.315-109.261-89.354-287.212-89.354-43.438 0-84.951 3.256-123.658 9.585 0.594 3.482 1.311 6.943 1.311 10.568v101.704c38.789-5.857 79.729-8.991 122.348-8.991 111.411 0 227.512 22.487 287.212 64.983v-88.494zM573.481 332.882c0-37.151-108.831-89.006-286.106-89.006s-286.106 51.835-286.106 89.006v88.023c59.556-42.312 175.165-64.696 286.106-64.696s226.55 22.385 286.106 64.696v-88.023zM1.29 267.592c59.556-42.291 175.165-64.676 286.106-64.676s226.55 22.385 286.106 64.676v-88.023c0-37.171-108.831-89.027-286.106-89.027s-286.106 51.835-286.106 89.027v88.023zM1024 709.796c0-37.335-109.261-89.395-287.212-89.395-177.93 0-287.191 52.060-287.191 89.395v88.474c59.72-42.516 175.78-65.004 287.191-65.004s227.512 22.487 287.212 65.004v-88.474zM736.788 953.057c177.951 0 287.212-52.081 287.212-89.416s-109.261-89.416-287.212-89.416c-177.93 0-287.191 52.081-287.191 89.416s109.24 89.416 287.191 89.416zM449.597 644.444c59.72-42.516 175.78-64.983 287.191-64.983s227.512 22.487 287.212 64.983v-88.494c0-37.335-109.261-89.395-287.212-89.395-42.66 0-84.91 3.461-123.576 9.708 0.532 3.277 1.249 6.492 1.249 9.892 0 54.907-71.393 93.245-164.844 113.439v44.851zM287.375 575.201c177.254 0 286.106-51.855 286.106-89.027s-108.831-89.006-286.106-89.006-286.106 51.835-286.106 89.006c0.020 37.171 108.851 89.027 286.106 89.027zM287.375-62.73c-177.254 0-286.106 51.835-286.106 89.027v88.003c59.556-42.312 175.165-64.696 286.106-64.696s226.55 22.385 286.106 64.696v-88.003c0-37.171-108.831-89.027-286.106-89.027zM736.788 158.863c-43.172 0-84.726 3.318-123.74 9.646 0.676 3.645 1.393 7.27 1.393 11.080v101.151c38.605-5.837 79.606-8.97 122.348-8.97 111.411 0 227.512 22.487 287.212 64.983v-88.474c0-37.335-109.261-89.416-287.212-89.416z" />
<glyph unicode="&#xe929;" glyph-name="CommentsFilled" d="M184.32 17.92c-9.216 0-17.285 6.144-19.743 15.012s1.311 18.289 9.196 23.020c43.807 26.276 61.317 66.519 54.354 125.809h-84.767c-56.463 0-102.4 45.937-102.4 102.4v491.52c0 56.463 45.937 102.4 102.4 102.4h737.28c56.463 0 102.4-45.937 102.4-102.4v-491.52c0-56.463-45.937-102.4-102.4-102.4h-457.032c-60.948-147.558-186.86-163.84-239.288-163.84z" />
<glyph unicode="&#xe92a;" glyph-name="Comments" d="M143.36 878.080c-56.227 0-102.4-46.173-102.4-102.4v-491.52c0-56.227 46.173-102.4 102.4-102.4h83.84c2.798-24.674 2.484-47.411-3.84-66.56-7.765-23.512-22.204-43.275-49.28-59.52-5.749-3.692-9.504-10.053-9.504-17.291 0-11.052 8.754-20.060 19.706-20.468 86.944-0.001 186.534 45.352 236.837 163.839h459.52c56.227 0 102.4 46.173 102.4 102.4v491.52c0 56.227-46.173 102.4-102.4 102.4h-737.28zM143.36 837.12h737.28c33.885 0 61.44-27.555 61.44-61.44v-491.52c0-33.885-27.555-61.44-61.44-61.44h-471.040c-8.771-0.015-16.248-5.54-19.154-13.299-31.897-87.008-88.754-128.38-147.886-143.501 8.021 11.478 15.568 23.546 19.84 36.48 10.667 32.296 9.748 67.667 3.2 103.68-1.852 9.449-10.002 16.502-19.825 16.64h-102.415c-33.885 0-61.44 27.555-61.44 61.44v491.52c0 33.885 27.555 61.44 61.44 61.44z" />
<glyph unicode="&#xe92b;" glyph-name="ConferenceCall" d="M549.12 857.6c-91.299 0-157.963-36.045-193.28-89.6-7.24-10.979-12.75-22.455-17.28-34.56l-5.12 10.24c-3.327 6.731-10.065 11.322-17.894 11.519-70.895 0.001-123.839-28.83-151.706-71.679-25.429-39.101-26.979-88.343-10.88-134.4-1.278-2.116-3.974-3.213-5.12-5.76-3.842-8.537-5.881-19.392-4.48-32-0.002-0.095-0.002-0.207-0.002-0.32s0.001-0.225 0.003-0.337c2.334-18.66 7.053-32.001 14.72-42.223 3.258-4.344 8.471-4.324 12.8-7.040 3.024-15.188 7.4-30.316 13.44-42.88 3.605-7.499 7.447-14.032 11.52-19.84 1.386-1.976 3.689-3.328 5.12-5.12-0.021-15.71-0.551-29.738-1.92-48-3.703-9.395-12.614-17.602-29.44-26.24-17.211-8.836-40.204-16.959-64-27.52s-49.089-23.341-69.12-44.16c-20.031-20.819-34.162-49.947-36.48-87.040-0.025-0.382-0.040-0.828-0.040-1.278 0-11.312 9.17-20.482 20.482-20.482 0.013 0 0.027 0 0.040 0h127.358c-3.143-11.716-5.586-24.251-6.4-37.76-0.025-0.382-0.040-0.828-0.040-1.278 0-11.312 9.17-20.482 20.482-20.482 0.013 0 0.027 0 0.040 0h700.158c0.011 0 0.025 0 0.038 0 11.312 0 20.482 9.17 20.482 20.482 0 0.45-0.014 0.896-0.043 1.338-0.858 14.226-3.583 27.337-7.037 39.62h128c0.011 0 0.025 0 0.038 0 11.312 0 20.482 9.17 20.482 20.482 0 0.45-0.014 0.896-0.043 1.338-2.312 36.979-16.658 66.147-36.477 86.98s-44.293 33.591-67.84 44.16c-23.547 10.569-46.342 18.695-63.36 27.52-16.263 8.434-24.901 17.029-28.8 26.24-1.345 16.588-1.895 31.295-1.92 48 1.395 1.758 3.768 3.187 5.12 5.12 4.055 5.799 7.38 12.402 10.88 19.84 5.68 12.070 9.804 26.503 12.16 40.96 4.136 2.678 9.027 2.863 12.16 7.040 7.666 10.222 12.385 23.563 14.72 42.24 1.415 11.318 0.195 21.807-3.2 30.72-0.949 2.492-4.462 4.006-5.76 6.4 4.483 10.501 9.619 20.378 10.88 33.28 1.865 19.092 0.31 40.599-5.12 61.44s-14.91 41.597-31.36 57.6c-13.302 12.941-32.030 20.586-53.12 23.68l-8.32 19.2c-3.249 7.178-10.322 12.095-18.552 12.16-28.299 0-58.461-2.835-86.408-11.52-7.312 16.148-16.89 31.489-30.080 44.16-17.531 16.841-42.121 26.969-70.4 30.080l-11.52 27.52c-3.249 7.178-10.322 12.095-18.552 12.16zM535.68 815.36l10.88-23.68c3.249-7.178 10.322-12.095 18.552-12.16 25.472 0 42.766-8.092 56.328-21.12s23.244-31.617 28.8-52.48c5.556-20.863 7.018-43.686 5.12-62.72s-8.428-34.375-12.16-39.040c-2.741-3.452-4.398-7.873-4.398-12.681 0-8.267 4.898-15.39 11.95-18.626-0.167 0.142 0.161 0.102 0.768-1.332 1.125-2.66 2.354-8.525 1.92-16-0.096-0.64 0.1-0.66 0-1.28-2.768-16.953-7.64-27.040-10.88-31.36-1.679-2.239-2.916-2.96-3.2-3.2-9.668-0.864-17.354-8.331-18.55-17.819-1.709-15.389-7.636-35.328-14.73-50.661-3.547-7.667-7.732-14.163-10.88-18.56-2.361-3.298-4.787-5.092-4.48-5.12-6.525-3.513-10.885-10.294-10.885-18.095 0-0.164 0.002-0.327 0.006-0.49 0-26.6-0.168-48.013 1.92-79.336 0.161-2.111 0.616-4.069 1.328-5.9 10.938-28.698 35.666-45.998 62.672-59.38s57.612-23.361 86.4-35.84c28.788-12.479 55.562-27.488 74.88-47.36 14.931-15.36 24.088-35.692 29.44-60.8h-648.96c5.352 25.108 14.509 45.44 29.44 60.8 19.318 19.872 46.092 34.881 74.88 47.36s59.394 22.457 86.4 35.84c27.006 13.383 51.734 30.683 62.72 59.52 0.664 1.691 1.119 3.649 1.276 5.69 2.107 29.502 1.924 52.806 1.924 79.43 0.003 0.139 0.005 0.302 0.005 0.465 0 7.8-4.36 14.582-10.776 18.041-0.079 0.081-0.301 0.327-0.749 0.694-0.163 0.068-0.36-0.12-0.64 0-0.93 0.772-2.303 2.484-3.84 4.48-3.31 4.3-7.777 11.074-11.52 18.56-7.486 14.972-13.672 33.886-15.36 49.92-1.014 9.038-7.782 16.24-16.512 17.9-2.129 0.42-12.603-0.023-16.128 35.22-1.43 15.729 5.967 20.405 5.12 19.84 5.721 3.697 9.455 10.042 9.455 17.26 0 3.020-0.654 5.887-1.827 8.468-13.091 29.992-17.237 61.177-12.748 90.112 3.25 3.61 5.238 8.413 5.238 13.68 0 1.965-0.277 3.866-0.793 5.665 3.857 12.571 9.29 24.496 16.676 35.695 25.489 38.652 73.489 66.997 145.92 70.4zM753.28 712.32l6.4-14.080c3.067-7.441 10.187-12.619 18.538-12.8 18.284 0 29.592-5.508 39.062-14.72s16.438-22.889 20.48-38.4c4.042-15.511 5.239-32.404 3.84-46.72s-6.211-25.987-8.32-28.8c-2.647-3.416-4.243-7.763-4.243-12.482 0-7.444 3.971-13.961 9.911-17.547 0.792-1.89 1.365-5.866 0.732-10.931-1.761-14.091-4.85-20.974-6.4-23.040-9.589-1.206-17.056-8.892-17.914-18.481-0.761-10.647-5.598-25.322-10.886-36.559-2.644-5.618-5.335-10.087-7.68-13.44-1.759-2.515-3.372-4.391-3.2-4.48-5.361-3.683-8.857-9.742-8.96-16.624 0-22.544-0.209-39.956 1.92-63.376 0.226-1.9 0.676-3.631 1.329-5.258 8.695-23.907 28.361-38.959 49.231-49.782s44.411-18.505 65.92-28.16c21.509-9.655 41.067-21.152 55.040-35.84 9.739-10.237 16.226-23.174 20.48-39.040h-118.4c-0.287 0.014-0.622 0.023-0.96 0.023s-0.673-0.008-1.007-0.024c-6.324 10.488-13.556 19.771-21.713 28.162-25.29 26.016-56.82 42.303-87.68 55.68s-61.246 23.687-84.48 35.2c-22.392 11.096-35.772 22.986-41.6 36.48-1.509 24.578-1.906 42.998-1.92 64.64 2.164 2.475 5.706 4.283 7.68 7.040 5.236 7.315 10.331 15.475 14.72 24.96 7.689 16.619 12.254 36.024 15.36 55.040 5.587 3.361 12.311 3.189 16.64 8.96 8.929 11.906 15.136 28.376 18.56 51.2 0.174 0.306 0.388 0.726 0.587 1.154 1.335 14.232-0.649 26.804-5.067 37.246-1.105 2.612-4.907 3.313-6.4 5.76 6.641 13.458 11.052 28.544 12.8 46.080 2.044 20.496 1.37 42.813-3.2 65.28 18.41 5.033 39.967 6.848 60.8 7.68zM304 711.68l7.68-14.72c2.899-6.063 8.523-10.418 15.242-11.504-2.571-29.803 2.032-60.66 12.918-90.256-7.771-10.633-13.974-24.844-12.16-44.8 3.576-35.762 19.561-52.719 35.2-62.080 3.315-19.615 9.166-39.453 17.28-55.68 4.705-9.41 9.902-17.868 15.36-24.96 2.036-2.646 5.502-4.062 7.68-6.4-0.017-21.656-0.435-41.111-1.92-64-5.828-13.494-19.208-25.384-41.6-36.48-23.234-11.513-53.62-21.823-84.48-35.2s-62.39-29.664-87.68-55.68c-8.664-8.912-16.41-18.801-23.040-30.080-0.095 0.002-0.207 0.002-0.32 0.002s-0.225-0.001-0.337-0.003h-117.743c4.287 15.811 10.632 28.805 20.48 39.040 14.145 14.701 33.908 26.177 55.68 35.84s44.859 17.348 65.92 28.16c21.061 10.812 41.145 25.149 49.92 49.28 0.664 1.691 1.119 3.649 1.276 5.69 2.115 25.396 2.564 42.31 2.564 62.79 0.005 0.168 0.008 0.365 0.008 0.563 0 7.281-3.8 13.675-9.524 17.307-0.729 0.766-2.089 2.185-3.284 3.89-2.391 3.408-5.525 8.267-8.32 14.080-5.59 11.626-10.51 26.664-12.16 39.040-1.422 9.128-8.705 16.194-17.824 17.271-1.646 2.075-4.735 8.958-6.496 23.049-0.647 5.824 0.514 9.177 1.28 10.88 5.441 3.737 8.963 9.925 8.963 16.936 0 3.145-0.709 6.125-1.976 8.788-16.928 38.308-13.936 78.31 5.813 108.676 18.199 27.983 53.406 47.385 105.6 50.56z" />
<glyph unicode="&#xe92c;" glyph-name="Console" d="M58.24 898.56c-32.133 0-58.24-26.107-58.24-58.24v-85.12h1024v85.12c0 32.133-26.086 58.24-58.24 58.24h-907.52zM0 714.24v-696.32c0-11.325 9.175-20.48 20.48-20.48h983.040c11.325 0 20.48 9.155 20.48 20.48v696.32h-1024zM309.12 551.040c5.243-0.072 10.138-1.715 14.080-5.76l135.68-139.52-138.88-135.68c-3.973-3.871-8.919-5.76-14.080-5.76-5.325 0-10.706 2.284-14.72 6.4-7.905 8.11-8.11 20.895 0 28.8l110.080 106.88-106.88 110.080c-7.905 8.11-8.11 20.915 0 28.8 4.045 3.963 9.477 5.832 14.72 5.76zM471.040 304.64h266.24c11.325 0 20.48-9.155 20.48-20.48s-9.155-20.48-20.48-20.48h-266.24c-11.305 0-20.48 9.155-20.48 20.48s9.175 20.48 20.48 20.48z" />
<glyph unicode="&#xe92d;" glyph-name="DeleteFilled" d="M187.52 830.72l-58.24-58.24 324.48-324.48-326.4-327.040 57.6-57.6 327.040 326.4 326.4-326.4 58.24 58.24-326.4 326.4 324.48 324.48-58.24 58.24-324.48-324.48-324.48 324.48z" />
<glyph unicode="&#xe92e;" glyph-name="Delete" d="M430.080 919.040c-33.699 0-61.44-27.741-61.44-61.44v-40.96h-160c-1.251 0.271-2.687 0.427-4.16 0.427s-2.909-0.155-4.294-0.451l-36.346 0.024c-0.287 0.014-0.622 0.023-0.96 0.023s-0.673-0.008-1.007-0.024c-10.855-0.525-19.495-9.493-19.495-20.478 0-11.323 9.179-20.502 20.502-20.502 0.338 0 0.673 0.008 1.007 0.024l20.433-0.002v-737.28c0-33.699 27.741-61.44 61.44-61.44h532.48c33.699 0 61.44 27.741 61.44 61.44v737.28h20.48c0.086-0.001 0.188-0.002 0.29-0.002 11.312 0 20.482 9.17 20.482 20.482s-9.17 20.482-20.482 20.482c-0.102 0-0.204-0.001-0.305-0.002h-204.785v40.96c0 33.699-27.741 61.44-61.44 61.44h-163.84zM430.080 878.080h163.84c11.357 0 20.48-9.123 20.48-20.48v-40.96h-204.8v40.96c0 11.357 9.123 20.48 20.48 20.48zM225.28 775.68h573.44v-737.28c0-11.357-9.123-20.48-20.48-20.48h-532.48c-11.357 0-20.48 9.123-20.48 20.48v737.28zM387.2 673.92c-1.007-0.185-1.868-0.407-2.705-0.681-9.083-2.078-15.861-10.221-15.861-19.946 0-0.173 0.002-0.346 0.006-0.519l-0.001-511.974c-0.001-0.086-0.002-0.188-0.002-0.29 0-11.312 9.17-20.482 20.482-20.482s20.482 9.17 20.482 20.482c0 0.102-0.001 0.204-0.002 0.305v511.985c0.008 0.217 0.013 0.473 0.013 0.729 0 11.312-9.17 20.482-20.482 20.482-0.68 0-1.352-0.033-2.015-0.098zM510.080 673.92c-1.007-0.185-1.868-0.407-2.705-0.681-9.083-2.078-15.861-10.221-15.861-19.946 0-0.173 0.002-0.346 0.006-0.519l-0.001-511.974c-0.001-0.086-0.002-0.188-0.002-0.29 0-11.312 9.17-20.482 20.482-20.482s20.482 9.17 20.482 20.482c0 0.102-0.001 0.204-0.002 0.305v511.985c0.008 0.217 0.013 0.473 0.013 0.729 0 11.312-9.17 20.482-20.482 20.482-0.68 0-1.352-0.033-2.015-0.098zM632.96 673.92c-1.007-0.185-1.868-0.407-2.705-0.681-9.083-2.078-15.861-10.221-15.861-19.946 0-0.173 0.002-0.346 0.006-0.519l-0.001-511.974c-0.001-0.086-0.002-0.188-0.002-0.29 0-11.312 9.17-20.482 20.482-20.482s20.482 9.17 20.482 20.482c0 0.102-0.001 0.204-0.002 0.305v511.985c0.008 0.217 0.013 0.473 0.013 0.729 0 11.312-9.17 20.482-20.482 20.482-0.68 0-1.352-0.033-2.015-0.098z" />
<glyph unicode="&#xe92f;" glyph-name="Diamond" d="M504.074 898.335l-222.413-236.196 49.664 236.196h172.749zM691.487 898.335l50.668-236.196-220.017 236.196h169.349zM731.996 611.84h-440.177l220.18 236.708 219.996-236.708zM229.581 611.84h-203.837l261.571 275.087-57.733-275.087zM231.977 570.88l199.311-525.414-407.020 525.414h207.708zM276.48 570.88h471.040l-235.52-610.652-235.52 610.652zM794.214 611.84l-58.696 276.214 261.079-276.214h-202.383zM592.855 45.834l199.188 525.046h206.971l-406.159-525.046z" />
<glyph unicode="&#xe930;" glyph-name="Domain" d="M512 960c-282.767 0-512-229.233-512-512s229.233-512 512-512c282.767 0 512 229.233 512 512s-229.233 512-512 512zM512 919.040c208.302 0 389.258-134.292 449.92-333.44 3.277-10.813-3.267-21.663-14.080-24.96-10.854-3.359-22.303 2.627-25.6 13.44-15.36 50.442-39.327 95.764-69.76 135.68-35.553-19.354-76.503-35.174-121.6-47.36 6.574-25.149 12.401-51.507 16.64-79.36 1.72-11.182-6.098-21.96-17.28-23.68-11.203-1.679-21.98 6.098-23.68 17.28-4.055 26.685-9.052 52.137-15.36 76.16-49.91-10.547-103.588-16.691-158.72-17.92v-55.040h-40.96v55.040c-55.235 1.229-108.872 7.373-158.72 17.92-6.328-24.023-11.284-49.475-15.36-76.16-1.556-10.138-10.547-17.28-20.48-17.28-1.024 0-2.156-0.164-3.2 0-11.182 1.7-18.98 12.498-17.28 23.68 4.239 27.853 10.045 54.231 16.64 79.36-45.076 12.206-86.026 27.945-121.6 47.36-30.454-39.936-54.38-85.217-69.76-135.68-2.683-8.827-11.075-14.7-19.84-14.72-1.987 0-3.773 0.666-5.76 1.28-10.834 3.297-17.377 14.147-14.080 24.96 60.641 199.148 241.597 333.44 449.92 333.44zM491.52 875.52c-59.146-13.046-113.265-81.418-147.2-183.040 46.121-9.523 95.939-15.452 147.2-16.64v199.68zM532.48 875.52v-199.68c51.18 1.188 100.378 7.117 146.56 16.64-33.935 101.601-87.434 169.994-146.56 183.040zM392.96 860.8c-75.203-21.422-142.008-62.597-194.56-119.040 31.375-16.302 67.062-29.773 106.24-40.32 22.077 67.277 52.398 121.738 88.32 159.36zM631.040 860.8c35.963-37.601 66.243-92.104 88.32-159.36 39.178 10.547 74.865 24.038 106.24 40.32-52.552 56.443-119.357 97.638-194.56 119.040zM61.44 523.52h35.84l35.84-122.88h0.64l40.32 122.88h35.84l39.040-122.88h0.64l37.12 122.88h35.84l-55.68-160.64h-35.2l-40.32 122.88h-0.64l-40.32-122.88h-36.48l-52.48 160.64zM381.44 523.52h35.84l35.84-122.88h0.64l40.32 122.88h35.84l39.040-122.88h0.64l37.12 122.88h35.84l-55.040-160.64h-35.84l-39.68 122.88h-0.64l-40.96-122.88h-36.48l-52.48 160.64zM701.44 523.52h35.84l35.84-122.88h0.64l40.32 122.88h35.84l39.040-122.88h0.64l37.12 122.88h35.84l-55.040-160.64h-35.84l-39.68 122.88h-0.64l-40.96-122.88h-35.84l-53.12 160.64zM83.84 337.28c7.936-0.839 15.447-6.595 17.92-14.72 15.36-50.463 39.306-96.384 69.76-136.32 35.574 19.374 76.503 35.814 121.6 48-6.574 25.149-12.401 51.507-16.64 79.36-1.7 11.182 6.098 21.34 17.28 23.040 11.039 1.659 21.98-6.077 23.68-17.28 4.055-26.685 9.032-51.497 15.36-75.52 49.869 10.547 103.506 16.712 158.72 17.92v55.040h40.96v-55.040c55.132-1.249 108.81-7.373 158.72-17.92 6.328 24.023 11.284 48.835 15.36 75.52 1.7 11.182 12.477 19.082 23.68 17.28 11.182-1.7 19-11.858 17.28-23.040-4.239-27.853-10.045-54.211-16.64-79.36 45.097-12.206 86.067-28.646 121.6-48 30.433 39.916 54.4 85.878 69.76 136.32 3.297 10.793 14.746 16.676 25.6 13.44 10.813-3.277 17.357-14.787 14.080-25.6-60.662-199.168-241.618-332.8-449.92-332.8-208.323 0-389.279 133.632-449.92 332.8-3.297 10.813 3.267 22.303 14.080 25.6 2.703 0.814 5.035 1.56 7.68 1.28zM491.52 220.8c-51.261-1.188-101.059-7.117-147.2-16.64 33.935-101.601 88.054-169.994 147.2-183.040v199.68zM532.48 220.8v-199.68c59.126 13.025 112.625 81.439 146.56 183.040-46.182 9.544-95.38 15.452-146.56 16.64zM304.64 195.2c-39.178-10.527-74.885-24.018-106.24-40.32 52.552-56.463 119.337-98.258 194.56-119.68-35.942 37.581-66.243 92.723-88.32 160zM719.36 195.2c-22.077-67.256-52.398-122.399-88.32-160 75.182 21.402 142.008 63.258 194.56 119.68-31.375 16.282-67.062 29.773-106.24 40.32z" />
<glyph unicode="&#xe931;" glyph-name="Download" d="M512 939.52c-11.305 0-20.48-9.175-20.48-20.48v-286.72h40.96v286.72c0 11.305-9.155 20.48-20.48 20.48zM532.48 632.32v-339.84l128.64 129.28c8.008 8.008 21.432 8.008 29.44 0s8.008-21.432 0-29.44l-178.56-177.92-178.56 177.92c-8.008 8.008-8.008 21.432 0 29.44s21.432 8.008 29.44 0l128.64-129.28v339.84h-348.16v-696.32h737.28v696.32h-348.16z" />
<glyph unicode="&#xe932;" glyph-name="EditFileFilled" d="M81.92 960v-983.040h432.64l-3.84-14.72c-0.536-1.743-0.845-3.746-0.845-5.822 0-11.312 9.17-20.482 20.482-20.482 1.893 0 3.726 0.257 5.467 0.738l122.736 32.606c3.561 1.156 6.583 3.145 8.945 5.743l323.855 321.297c2.535 2.213 4.507 5.007 5.713 8.179l2.607 2.061c32.788 32.788 32.788 86.252 0 119.040-32.768 32.768-86.272 32.768-119.040 0l-14.080-14.72 0.64-0.64-48-48v298.88l-298.88 298.88h-438.4zM512 910.72l257.92-257.92h-257.92v257.92zM896 381.44l61.44-61.44-300.16-298.24-60.8 59.52 299.52 300.16zM576.64 43.52l43.52-42.24-60.16-16 16.64 58.24z" />
<glyph unicode="&#xe933;" glyph-name="EditFile" d="M81.92 960v-983.040h348.16c0.086-0.001 0.188-0.002 0.29-0.002 11.312 0 20.482 9.17 20.482 20.482s-9.17 20.482-20.482 20.482c-0.102 0-0.204-0.001-0.305-0.002h-307.185v901.12h368.64v-286.72h286.72v-225.28c-0.001-0.086-0.002-0.188-0.002-0.29 0-11.312 9.17-20.482 20.482-20.482s20.482 9.17 20.482 20.482c0 0.102-0.001 0.204-0.002 0.305v254.065l-5.76 6.4-286.72 286.72-6.4 5.76h-438.4zM532.48 889.6l216.32-216.32h-216.32v216.32zM940.16 449.92c-21.504 0-43.136-7.936-59.52-24.32l-14.080-14.72 0.64-0.64-316.16-316.16c-2.615-2.377-4.604-5.399-5.719-8.815l-34.601-123.025c-0.536-1.743-0.845-3.746-0.845-5.822 0-11.312 9.17-20.482 20.482-20.482 1.893 0 3.726 0.257 5.467 0.738l122.736 32.606c3.561 1.156 6.583 3.145 8.945 5.743l323.855 321.297c2.535 2.213 4.507 5.007 5.713 8.179l2.607 2.061c32.768 32.768 32.768 86.272 0 119.040-16.384 16.384-38.016 24.32-59.52 24.32zM896 381.44l61.44-61.44-314.24-312.32-60.16 58.24 0.64 2.56 312.32 312.96z" />
<glyph unicode="&#xe934;" glyph-name="EditFilled" d="M953.856 889.836c-19.476 19.476-44.995 29.204-70.492 29.204-25.518 0-51.036-9.748-70.513-29.204 0 0-1.372-1.372-3.256-3.256-0.184-0.164-0.43-0.225-0.594-0.41l-720.896-720.876c-2.54-2.54-4.362-5.693-5.304-9.175l-41.144-153.375c-1.905-7.066 0.123-14.602 5.304-19.784 3.891-3.891 9.114-6.001 14.479-6.001 1.761 0 3.543 0.225 5.304 0.696l153.375 41.165c3.461 0.942 6.636 2.765 9.175 5.304l720.876 720.855c0.225 0.225 0.287 0.512 0.492 0.758 1.823 1.823 3.133 3.133 3.133 3.133 38.973 38.932 38.973 102.052 0.061 140.964zM924.877 860.877c22.897-22.897 22.876-60.15-0.020-83.046-6.738-6.738-12.534-12.513-17.49-17.49l-83.046 83.046c9.4 9.4 17.49 17.49 17.49 17.49 11.1 11.1 25.846 17.203 41.554 17.203 15.667 0 30.433-6.124 41.513-17.203zM114.77 117.166l66.396-66.376-90.747-24.351 24.351 90.726z" />
<glyph unicode="&#xe935;" glyph-name="Edit" d="M883.2 919.040c-25.513-0.005-50.934-9.984-70.4-29.44l-16.64-16.64 140.8-140.8c-0.102-0.082 16.64 16.64 16.64 16.64 38.932 38.932 38.892 101.888 0 140.8-19.487 19.476-44.887 29.445-70.4 29.44zM764.8 836.48c-4.844-0.713-9.050-3.030-12.147-6.386l-664.333-664.974c-2.615-2.377-4.604-5.399-5.719-8.815l-41.001-153.745c-0.415-1.54-0.653-3.308-0.653-5.131 0-11.312 9.17-20.482 20.482-20.482 1.823 0 3.591 0.238 5.274 0.685l153.457 40.928c3.561 1.156 6.583 3.145 8.945 5.743l664.975 664.337c3.825 3.742 6.196 8.956 6.196 14.724 0 11.373-9.219 20.592-20.592 20.592-5.609 0-10.694-2.242-14.408-5.88l-661.116-661.117-83.2 83.2 661.12 661.12c3.869 3.731 6.271 8.96 6.271 14.75 0 11.312-9.17 20.482-20.482 20.482-0.404 0-0.806-0.012-1.204-0.035-0.232 0.017-0.567 0.025-0.905 0.025s-0.673-0.008-1.007-0.024z" />
<glyph unicode="&#xe936;" glyph-name="EnterFilled" d="M266.24 960c-33.874 0-61.44-27.566-61.44-61.44v-430.080h420.48l-188.16 188.16c-8.008 8.008-8.008 20.792 0 28.8s20.792 8.008 28.8 0l237.44-237.44-237.44-237.44c-3.994-3.994-8.837-6.4-14.080-6.4s-10.726 2.406-14.72 6.4c-8.008 8.008-8.008 20.792 0 28.8l188.16 188.16h-420.48v-430.080c0-33.874 27.566-61.44 61.44-61.44h696.32c33.874 0 61.44 27.566 61.44 61.44v901.12c0 33.874-27.566 61.44-61.44 61.44h-696.32zM204.8 427.52v40.96h-184.32c-11.305 0-20.48-9.175-20.48-20.48s9.175-20.48 20.48-20.48h184.32z" />
<glyph unicode="&#xe937;" glyph-name="Enter" d="M266.24 960c-33.679 0-61.44-27.739-61.44-61.44v-389.12h40.96v389.12c0 11.559 8.939 20.48 20.48 20.48h696.32c11.541 0 20.48-8.921 20.48-20.48v-901.12c0-11.529-8.951-20.48-20.48-20.48h-696.32c-11.529 0-20.48 8.951-20.48 20.48v389.12h-40.96v-389.12c0-33.691 27.749-61.44 61.44-61.44h696.32c33.691 0 61.44 27.749 61.44 61.44v901.12c0 33.701-27.761 61.44-61.44 61.44h-696.32zM447.36 691.84c-9.631-1.794-16.826-10.134-16.826-20.153 0-5.942 2.53-11.293 6.572-15.035l188.173-188.172h-604.8c-0.287 0.014-0.622 0.023-0.96 0.023s-0.673-0.008-1.007-0.024c-10.855-0.525-19.495-9.493-19.495-20.478 0-11.323 9.179-20.502 20.502-20.502 0.338 0 0.673 0.008 1.007 0.024l604.753-0.002-188.16-188.16c-4.67-3.785-7.63-9.521-7.63-15.948 0-11.312 9.17-20.482 20.482-20.482 6.427 0 12.163 2.96 15.918 7.592l223.39 222.758 14.080 14.72-14.080 14.72-223.36 222.72c-3.746 3.987-9.053 6.471-14.94 6.471-0.598 0-1.191-0.026-1.776-0.076-0.21 0.020-0.546 0.028-0.884 0.028s-0.673-0.008-1.007-0.024z" />
<glyph unicode="&#xe938;" glyph-name="ErrorFilled" d="M1019.453 31.273l-489.718 848.22c-7.311 12.677-28.16 12.677-35.471 0l-491.52-851.333c-3.645-6.349-3.645-14.131 0-20.48 3.666-6.349 10.424-10.24 17.736-10.24h983.040c0.123 0.020 0.287 0.020 0.41 0 11.325 0 20.48 9.155 20.48 20.48 0 5.1-1.864 9.769-4.956 13.353zM481.157 565.473c0 4.403 2.949 7.352 7.352 7.352h47.002c4.403 0 7.311-2.949 7.311-7.352v-296.182c0-4.403-2.929-7.332-7.311-7.332h-47.002c-4.424 0-7.352 2.949-7.352 7.332v296.182zM544.317 142.111c0-4.403-2.929-7.332-7.311-7.332h-49.93c-4.403 0-7.352 2.949-7.352 7.332v53.637c0 4.403 2.97 7.332 7.352 7.332h49.93c4.444 0 7.311-2.949 7.311-7.332v-53.637z" />
<glyph unicode="&#xe939;" glyph-name="Error" d="M508.8 889.6c-6.36-1.018-11.66-4.842-14.667-10.139l-491.573-851.301c-1.724-2.937-2.743-6.469-2.743-10.239 0-11.312 9.17-20.482 20.482-20.482 0.064 0 0.127 0 0.19 0.001h983.030c0.054-0.001 0.117-0.001 0.181-0.001 11.312 0 20.482 9.17 20.482 20.482 0 3.77-1.018 7.302-2.795 10.335l-491.468 851.103c-3.572 6.309-10.239 10.497-17.884 10.497-1.143 0-2.264-0.094-3.355-0.273zM512 828.16l455.68-789.76h-911.36l455.68 789.76zM488.32 572.8c-4.403 0-7.040-2.637-7.040-7.040v-296.32c0-4.403 2.616-7.68 7.040-7.68h47.36c4.403 0 7.040 3.277 7.040 7.68v296.32c0 4.403-2.637 7.040-7.040 7.040h-47.36zM483.84 202.88c-2.684-1.036-3.84-3.738-3.84-7.040v-53.76c0-4.424 2.637-7.040 7.040-7.040h49.92c4.403 0 7.040 2.637 7.040 7.040v53.76c0 4.403-2.616 7.040-7.040 7.040h-49.92c-1.096 0-2.305 0.345-3.2 0z" />
<glyph unicode="&#xe93a;" glyph-name="ExportFilled" d="M20.48 960.64c-11.756 0-21.12-9.364-21.12-21.12v-983.040c0-11.756 9.364-21.12 21.12-21.12h614.4c11.756 0 21.12 9.364 21.12 21.12v471.040h-328.32c-11.305 0-20.48 9.175-20.48 20.48s9.175 20.48 20.48 20.48h328.32v471.040c0 11.756-9.364 21.12-21.12 21.12h-614.4zM656 468.48v-40.96h277.76l-147.2-147.2c-8.008-8.008-8.008-20.792 0-28.8 3.994-3.994 8.837-6.4 14.080-6.4s10.726 2.406 14.72 6.4l196.48 196.48-196.48 196.48c-8.008 8.008-20.792 8.008-28.8 0s-8.008-20.792 0-28.8l147.2-147.2h-277.76z" />
<glyph unicode="&#xe93b;" glyph-name="Export" d="M16 960.64c-9.595-2.206-16.643-10.673-16.643-20.786 0-0.118 0.001-0.235 0.003-0.352v-983.022c0.102-11.623 9.497-21.018 21.11-21.12h614.41c11.623 0.102 21.018 9.497 21.12 21.11v204.81h-42.24v-183.68h-572.16v940.8h572.16v-183.68h42.24v204.8c-0.102 11.623-9.497 21.018-21.11 21.12h-614.41c-0.672 0.075-1.451 0.118-2.24 0.118s-1.568-0.043-2.335-0.126zM796.8 650.88c-9.631-1.794-16.826-10.134-16.826-20.153 0-5.942 2.53-11.293 6.572-15.035l146.573-147.212h-605.44c-0.287 0.014-0.622 0.023-0.96 0.023s-0.673-0.008-1.007-0.024c-10.855-0.525-19.495-9.493-19.495-20.478 0-11.323 9.179-20.502 20.502-20.502 0.338 0 0.673 0.008 1.007 0.024l605.393-0.002-146.56-147.2c-4.67-3.785-7.63-9.521-7.63-15.948 0-11.312 9.17-20.482 20.482-20.482 6.427 0 12.163 2.96 15.918 7.592l182.43 181.798 14.080 14.72-14.080 14.72-182.4 181.76c-3.746 3.987-9.053 6.471-14.94 6.471-0.598 0-1.191-0.026-1.776-0.076-0.21 0.020-0.546 0.028-0.884 0.028s-0.673-0.008-1.007-0.024z" />
<glyph unicode="&#xe93c;" glyph-name="FAQ" d="M450.56 960c-45.937 0-81.92-35.983-81.92-81.92v-327.68c0-45.937 35.983-81.92 81.92-81.92h320l158.080-138.24c3.789-3.318 8.586-5.12 13.44-5.12 2.867 0 5.617 0.671 8.32 1.92 7.332 3.318 12.16 10.511 12.16 18.56v125.44c35.717 8.868 61.44 40.509 61.44 79.36v327.68c0 45.937-35.983 81.92-81.92 81.92h-491.52zM675.84 835.2h42.88l49.28-235.52h-37.12l-12.16 61.44h-44.8l-12.16-61.44h-37.12l51.2 235.52zM696.32 796.16c-2.048-16.384-6.272-38.784-8.32-53.12l-10.24-53.12h39.040l-10.24 53.12c-4.096 14.336-6.272 36.736-8.32 53.12h-1.92zM81.92 570.88c-45.937 0-81.92-35.983-81.92-81.92v-327.68c0-38.83 25.723-70.472 61.44-79.36v-125.44c0-8.049 4.828-15.242 12.16-18.56 2.703-1.249 5.453-1.92 8.32-1.92 4.874 0 9.631 1.802 13.44 5.12l158.080 138.24h320c45.937 0 81.92 35.983 81.92 81.92v266.24h-204.8c-68.895 0-122.88 53.985-122.88 122.88v20.48h-245.76zM319.36 448c49.152 0 67.84-52.992 67.84-116.48 0-61.44-14.592-96.512-37.12-108.8v-1.92c14.336-6.164 31.104-12.544 45.44-16.64l-12.8-28.8c-18.432 8.172-42.624 20.628-56.96 28.8-4.096 2.068-8.192 4.48-10.24 4.48-43.008 0-69.76 40.448-69.76 120.32 0 69.612 26.496 119.040 73.6 119.040zM317.44 417.28c-24.576 0-32.64-42.752-32.64-85.76 0-49.132 8.064-90.24 32.64-90.24 22.528 0 30.72 41.108 30.72 90.24 0 45.056-8.192 85.76-30.72 85.76z" />
<glyph unicode="&#xe93d;" glyph-name="FilterFilled" d="M81.92 919.040c-12.288 0-20.48-8.192-20.48-20.48v-61.44c0-6.144 2.304-9.984 6.4-14.080l327.68-348.16c4.096-4.096 9.984-6.4 14.080-6.4h204.8c6.144 0 9.984 2.304 14.080 6.4l327.68 348.16c4.096 4.096 6.4 7.936 6.4 14.080v61.44c0 12.288-8.192 20.48-20.48 20.48h-860.16zM389.12 427.52v-307.2c0-8.192 4.096-14.464 10.24-18.56l204.8-122.88c2.048-2.048 6.144-1.92 10.24-1.92s6.144-0.128 10.24 1.92c6.144 4.096 10.24 10.368 10.24 18.56v430.080h-245.76z" />
<glyph unicode="&#xe93e;" glyph-name="Filter" d="M78.080 919.040c-9.542-1.869-16.643-10.165-16.643-20.119 0-0.127 0.001-0.254 0.003-0.38v-61.421c0.044-5.478 2.232-10.437 5.765-14.085l321.915-341.755v-360.96c0.171-7.364 4.203-13.75 10.143-17.228l204.897-122.932c2.938-1.726 6.472-2.745 10.243-2.745 11.151 0 20.221 8.912 20.477 20.001v483.864l318.72 338.56c0.22 0.211 0.429 0.42 0.633 0.633l2.567 2.567c0.933 0.952 1.776 1.999 2.512 3.122 0.498 0.491 0.915 0.908 1.314 1.343 1.179 2.452 1.881 5.305 1.933 8.317 0.007 0.209 0.010 0.433 0.010 0.658s-0.004 0.449-0.011 0.673c0.041 0.446 0.063 1.004 0.063 1.567s-0.023 1.121-0.067 1.673l0.005 58.167c-0.001 11.31-9.17 20.479-20.48 20.48h-860.16c-0.287 0.014-0.622 0.023-0.96 0.023s-0.673-0.008-1.007-0.024c-0.24 0.016-0.575 0.024-0.913 0.024s-0.673-0.008-1.007-0.024zM102.4 878.080h819.2v-33.28l-316.16-335.36h-186.88l-316.16 335.36v33.28zM430.080 468.48h163.84v-435.2l-163.84 97.92v337.28z" />
<glyph unicode="&#xe93f;" glyph-name="Fingerprint" d="M491.52 919.040c-61.191 0-114.738-12.77-160.64-32.64-8.393-2.687-14.363-10.42-14.363-19.547 0-11.312 9.17-20.482 20.482-20.482 3.885 0 7.517 1.082 10.612 2.96 40.965 17.721 88.241 28.749 143.909 28.749 81.883 0 149.214-18.736 205.44-48 2.783-1.494 6.089-2.372 9.6-2.372 11.384 0 20.612 9.228 20.612 20.612 0 7.873-4.414 14.714-10.902 18.186-61.931 32.23-136.567 52.534-224.751 52.534zM269.44 851.2c-3.421-0.582-6.451-1.935-9.011-3.877-57.383-40.076-99.558-90.244-130.509-132.443-15.475-21.1-28.025-40.181-38.4-55.040s-19.148-26.123-21.76-28.16c-6.142-3.613-10.199-10.189-10.199-17.714 0-11.312 9.17-20.482 20.482-20.482 5.753 0 10.952 2.372 14.673 6.191 11.523 8.986 19.277 21.008 30.084 36.484s23.58 34.194 38.4 54.4c29.639 40.412 68.349 86.582 120.32 122.88 5.77 3.688 9.54 10.061 9.54 17.314 0 11.312-9.17 20.482-20.482 20.482-0.428 0-0.854-0.013-1.276-0.039-0.229 0.017-0.564 0.025-0.902 0.025s-0.673-0.008-1.007-0.024zM504.96 816.64c-10.116-1.463-17.802-10.074-17.802-20.48 0-11.422 9.259-20.682 20.682-20.682 1.016 0 2.015 0.073 2.991 0.215 208.062-12.18 296.046-128.044 333.329-259.213s17.716-278.833 0-333.44c-0.648-1.911-1.022-4.112-1.022-6.4 0-11.345 9.197-20.542 20.542-20.542 9.057 0 16.745 5.861 19.478 13.998 21.341 65.797 41.106 215.042 0.682 357.265s-147.383 276.236-370.56 289.28c-0.672 0.078-1.451 0.123-2.24 0.123s-1.568-0.045-2.334-0.132c-0.193 0.023-0.529 0.031-0.866 0.031s-0.673-0.008-1.007-0.024c-0.24 0.016-0.575 0.024-0.913 0.024s-0.673-0.008-1.007-0.024zM782.72 815.36c-9.579-1.839-16.718-10.152-16.718-20.133 0-7.043 3.554-13.255 8.967-16.941 160.22-110.637 185.671-361.006 185.671-361.006 1.014-10.504 9.796-18.65 20.48-18.65 11.36 0 20.57 9.209 20.57 20.57 0 0.676-0.033 1.344-0.096 2.004 0.007-0.084-21.892 264.896-203.513 390.316-3.375 2.545-7.64 4.076-12.262 4.076-1.094 0-2.167-0.086-3.214-0.251zM426.24 808.96c-0.554-0.252-0.974-0.466-1.385-0.693-141.422-28.044-209.932-125.457-262.935-207.947-2.078-3.163-3.315-7.039-3.315-11.205 0-11.373 9.219-20.592 20.592-20.592 7.211 0 13.557 3.707 17.235 9.319 52.477 81.675 109.734 165.689 236.208 190.798 9.032 2.265 15.615 10.311 15.615 19.895 0 11.312-9.17 20.482-20.482 20.482-0.54 0-1.074-0.021-1.603-0.062zM512 714.24c-71.194 0-125.614-22.834-167.68-56.96-4.707-3.787-7.694-9.546-7.694-16.004 0-11.316 9.174-20.49 20.49-20.49 4.863 0 9.33 1.694 12.844 4.524 35.8 29.044 79.378 47.969 142.041 47.969 18.089 0 35.366-1.544 51.84-4.48 1.305-0.296 2.804-0.466 4.343-0.466 11.312 0 20.482 9.17 20.482 20.482 0 10.361-7.693 18.925-17.679 20.292-19.022 3.383-38.573 5.132-58.986 5.132zM640 684.8c-0.796-0.222-1.435-0.441-2.058-0.689-9.084-2.075-15.858-10.214-15.858-19.936 0-8.049 4.643-15.014 11.396-18.362 89.815-45.797 144.759-145.5 144.759-279.734 0-39.866-4.862-82.119-12.16-122.24-0.231-1.155-0.362-2.482-0.362-3.84 0-11.334 9.188-20.522 20.522-20.522 9.976 0 18.29 7.118 20.139 16.553 7.632 41.969 12.821 86.767 12.821 130.050 0 145.605-61.807 262.493-167.040 316.16-2.904 1.675-6.387 2.664-10.101 2.664-0.725 0-1.442-0.038-2.148-0.111zM512 611.84c-53.326 0-94.793-17.152-126.080-43.52s-52.667-60.921-71.68-96.64c-1.494-2.783-2.372-6.089-2.372-9.6 0-11.384 9.228-20.612 20.612-20.612 7.873 0 14.714 4.414 18.186 10.902 18.171 34.147 36.829 63.804 61.494 84.591s54.76 33.92 99.84 33.92c42.526 0 73.566-13.322 97.92-34.56s41.767-50.896 52.48-83.84c2.278-9.014 10.316-15.578 19.886-15.578 11.312 0 20.482 9.17 20.482 20.482 0 2.608-0.487 5.102-1.376 7.396-12.423 38.207-33.256 74.935-64.592 102.26s-73.343 44.8-124.8 44.8zM296.32 600.32c-5.659-1.072-10.403-4.348-13.392-8.883-40.904-55.352-70.453-116.684-104.368-160.717s-67.515-70.142-127.36-64.64c-0.576 0.057-1.244 0.090-1.92 0.090-11.36 0-20.57-9.209-20.57-20.57 0-10.684 8.146-19.466 18.566-20.473 74.341-6.834 125.897 31.262 163.924 80.633s66.717 110.407 104.32 161.28c2.802 3.474 4.498 7.943 4.498 12.807 0 11.093-8.818 20.126-19.826 20.472-0.318 0.015-0.654 0.023-0.992 0.023s-0.673-0.008-1.007-0.024c-0.24 0.016-0.575 0.024-0.913 0.024s-0.673-0.008-1.007-0.024zM133.76 542.72c-1.211-0.145-2.295-0.37-3.345-0.676-5.177-1.038-9.655-4.052-12.612-8.22-24.054-32.804-47.881-56.454-77.483-66.623-9.234-2.115-16.019-10.26-16.019-19.99 0-11.312 9.17-20.482 20.482-20.482 3.267 0 6.355 0.765 9.096 2.125 41.222 14.149 71.037 44.965 97.161 80.586 2.819 3.48 4.525 7.961 4.525 12.841 0 11.312-9.17 20.482-20.482 20.482-0.465 0-0.927-0.016-1.385-0.046zM477.44 522.24c-2.647-0.45-5.014-1.345-7.133-2.612-35.607-19.306-52.011-58.24-65.827-97.228s-25.115-80.063-39.040-106.88c-40.17-77.384-116.913-154.24-222.080-154.24-0.086 0.001-0.188 0.002-0.29 0.002-11.312 0-20.482-9.17-20.482-20.482s9.17-20.482 20.482-20.482c0.102 0 0.204 0.001 0.305 0.002 124.849 0 213.559 89.339 258.545 176 17.553 33.804 28.054 75.581 40.96 112s28.747 65.428 47.36 75.52c6.641 3.478 11.095 10.321 11.095 18.204 0 11.312-9.17 20.482-20.482 20.482-1.206 0-2.387-0.104-3.535-0.304zM548.48 518.4c-9.718-1.72-17.004-10.101-17.004-20.185 0-7.428 3.955-13.933 9.873-17.524 20.303-13.777 32.091-50.019 32.091-96.691 0-30.872-11.125-103.499-40.32-178.56s-76.461-153.115-145.28-202.24c-5.378-3.787-8.849-9.97-8.849-16.963 0-11.423 9.261-20.684 20.684-20.684 4.434 0 8.542 1.395 11.91 3.771 78.183 55.812 128.243 141.562 159.295 221.396s43.52 153.352 43.52 193.28c0 53.065-11.543 104.063-50.56 130.56-3.375 2.545-7.64 4.076-12.262 4.076-1.094 0-2.167-0.086-3.214-0.251zM508.8 427.52c-9.516-1.535-16.772-9.449-17.278-19.15-0.002-0.050-4.386-67.356-39.682-146.61-1.827-3.004-2.909-6.636-2.909-10.521 0-11.312 9.17-20.482 20.482-20.482 9.127 0 16.86 5.97 19.506 14.218 38.349 86.164 43.56 160.785 43.56 160.785 0.037 0.46 0.058 0.997 0.058 1.538 0 11.312-9.17 20.482-20.482 20.482-1.15 0-2.277-0.095-3.375-0.277zM289.28 407.040c-6.211-1.347-11.28-5.365-14.026-10.764-19.828-36.93-41.568-70.634-71.094-94.196s-66.808-38.4-122.88-38.4c-0.086 0.001-0.188 0.002-0.29 0.002-11.312 0-20.482-9.17-20.482-20.482s9.17-20.482 20.482-20.482c0.102 0 0.204 0.001 0.305 0.002 63.741 0 112.076 18.32 148.465 47.36s61.123 67.523 81.92 106.24c1.797 2.985 2.859 6.587 2.859 10.438 0 11.312-9.17 20.482-20.482 20.482-1.008 0-1.999-0.073-2.968-0.213-0.176 0.027-0.512 0.036-0.85 0.036s-0.673-0.008-1.007-0.024zM694.4 387.2c-1.007-0.185-1.868-0.407-2.705-0.681-9.083-2.078-15.861-10.221-15.861-19.946 0-0.173 0.002-0.346 0.006-0.519-0.001-212.404-123.521-369.254-123.521-369.254-2.758-3.489-4.424-7.952-4.424-12.804 0-11.455 9.286-20.741 20.741-20.741 6.606 0 12.491 3.089 16.289 7.901 0.033 0.044 131.873 166.665 131.873 394.924 0.008 0.217 0.013 0.473 0.013 0.729 0 11.312-9.17 20.482-20.482 20.482-0.68 0-1.352-0.033-2.015-0.098zM431.36 206.72c-6.258-0.87-11.533-4.458-14.67-9.513-35.442-53.731-86.667-104.501-162.61-137.687-7.415-3.198-12.51-10.445-12.51-18.882 0-11.325 9.18-20.505 20.505-20.505 2.892 0 5.643 0.599 8.138 1.678 83.831 36.64 141.478 93.995 180.347 152.909 2.277 3.254 3.639 7.295 3.639 11.654 0 11.312-9.17 20.482-20.482 20.482-0.83 0-1.649-0.049-2.454-0.145zM763.52 174.72c-8.336-1.444-14.872-7.764-16.616-15.865-16.082-60.9-32.024-103.175-32.024-103.175-1.060-2.392-1.676-5.182-1.676-8.116 0-11.312 9.17-20.482 20.482-20.482 9.184 0 16.956 6.045 19.555 14.373 0.039 0.145 16.731 44.255 33.319 107.025 0.534 1.74 0.842 3.74 0.842 5.811 0 11.312-9.17 20.482-20.482 20.482-0.521 0-1.037-0.019-1.548-0.058-0.218 0.018-0.554 0.027-0.892 0.027s-0.673-0.008-1.007-0.024z" />
<glyph unicode="&#xe940;" glyph-name="FinishFlagFilled" d="M61.44 960c-12.288 0-20.48-8.192-20.48-20.48v-983.040c0-12.288 8.192-20.48 20.48-20.48h81.92c12.288 0 20.48 8.192 20.48 20.48v348.16h798.72c11.31 0.001 20.479 9.17 20.48 20.48v614.4c-0.001 11.31-9.17 20.479-20.48 20.48h-901.12zM163.84 919.040h184.32v-184.32h204.8v184.32h204.8v-184.32h184.32v-204.8h-184.32v-184.32h-204.8v184.32h-204.8v-184.32h-184.32v184.32h184.32v204.8h-184.32v184.32zM552.96 529.92h204.8v204.8h-204.8v-204.8z" />
<glyph unicode="&#xe941;" glyph-name="Genealogy" d="M819.2 960v-204.8h204.8v204.8h-204.8zM675.84 857.6v-122.88h-81.92v-40.96h81.92v-122.88h122.88v40.96h-81.92v204.8h81.92v40.96h-122.88zM368.64 816.64v-204.8h204.8v204.8h-204.8zM266.24 734.72v-266.24h-40.96v-40.96h40.96v-266.24h81.92v40.96h-40.96v491.52h40.96v40.96h-81.92zM819.2 673.28v-204.8h204.8v204.8h-204.8zM0 591.36v-286.72h204.8v286.72h-204.8zM819.2 427.52v-204.8h204.8v204.8h-204.8zM675.84 325.12v-122.88h-81.92v-40.96h81.92v-122.88h122.88v40.96h-81.92v204.8h81.92v40.96h-122.88zM368.64 284.16v-204.8h204.8v204.8h-204.8zM819.2 140.8v-204.8h204.8v204.8h-204.8z" />
<glyph unicode="&#xe942;" glyph-name="GlobeAsiaFilled" d="M512 919.040c-259.906 0-471.040-211.134-471.040-471.040s211.134-471.040 471.040-471.040c259.906 0 471.040 211.134 471.040 471.040s-211.134 471.040-471.040 471.040zM495.36 791.68l42.88-12.8-53.76-42.88-14.080-55.040-8.32 53.76-62.080-43.52 17.92-28.16-10.88-39.040-49.28-28.16 19.2-27.52-19.84-61.44-24.96-1.92 23.040-30.080-10.24-42.88-34.56 48-28.16 21.12-25.6-39.68 7.68-30.080-28.8 12.16-30.72 42.88-33.28 5.12-42.24 2.56 42.88-26.24-10.88-34.56-18.56-3.2-48 45.44 1.92-30.72 35.84-43.52 18.56 3.84-12.8-66.56 8.32-94.080-7.68-9.6c-36.005 62.902-56.96 135.355-56.96 213.12 0 126.883 54.867 240.684 142.080 319.36l53.12 19.2 42.88-19.84 32 9.6 8.96-10.88 33.92 14.72 49.28 5.12 12.16-5.76 39.040 12.16zM635.52 768.64l32.64-1.28 32.64-23.040 38.4 7.68 58.24-18.56 17.92 19.2c31.277-31.147 57.539-67.335 78.080-106.88v-0.64l-39.040-14.080 17.28-18.56 37.76-0.64c7.968-19.361 14.734-39.495 19.84-60.16l-49.92-33.28 1.28-49.92-42.88 46.72-33.92-8.96 30.080-71.68-37.12 29.44-37.76 72.32-21.76 31.36-3.2 53.76-41.6 75.52-25.6 5.76-55.68-16.64 23.68 24.96-10.88 25.6 11.52 32zM903.68 426.24l28.8-48 3.2-3.84c-9.285-53.935-28.972-104.081-56.32-149.12l-16-10.24-31.36-13.44-30.080-32-11.52-24.32-14.080 14.72 10.24 32.64 59.52 83.84 10.88 28.16-16 21.12-7.040 57.6 21.76 6.4 8.96 22.4 39.040 14.080zM480.64 418.56l37.12-42.88 24.96 34.56 32.64-58.24 17.92-38.4-27.52-56.32-24.96-5.76-42.88 40.32-24.96 6.4-48.64-23.68-21.12 17.28-5.76 70.4 83.2 56.32zM679.040 286.080l15.36-24.32-12.16-16.64-3.2 40.96z" />
<glyph unicode="&#xe943;" glyph-name="GlobeAsia" d="M512 919.040c-259.906 0-471.040-211.134-471.040-471.040 0-87.471 24.281-169.126 65.92-239.36 0.598-1.226 1.237-2.275 1.96-3.257 0.209-0.356 0.349-0.81 0.6-1.223 0.211-0.22 0.42-0.429 0.633-0.633 82.769-135.557 231.68-226.567 401.927-226.567 259.906 0 471.040 211.134 471.040 471.040s-211.134 471.040-471.040 471.040zM512 878.080c111.37 0 212.308-42.707 288.64-112l-8.96-8.96-46.080 14.72c-1.898 0.641-4.084 1.011-6.357 1.011-1.374 0-2.716-0.135-4.013-0.393l-29.31-5.738-26.24 17.28c-3.030 2.207-6.771 3.612-10.827 3.838l-32.693 1.282c-0.287 0.014-0.622 0.023-0.96 0.023s-0.673-0.008-1.007-0.024c-8.209-0.551-15.083-5.919-17.827-13.297l-11.566-32.142c-0.866-2.183-1.368-4.713-1.368-7.36s0.502-5.177 1.416-7.499l6.352-13.301-14.72-15.36c-3.762-3.715-6.092-8.873-6.092-14.575 0-11.312 9.17-20.482 20.482-20.482 2.411 0 4.725 0.417 6.873 1.182l51.057 15.316 10.24-2.56 34.56-62.72 3.2-49.92c0.354-3.882 1.741-7.383 3.88-10.297l20.44-29.383 1.28-1.92 36.48-69.76c1.238-2.772 2.969-5.117 5.1-7.023l37.14-29.457c3.412-2.636 7.75-4.225 12.459-4.225 3.91 0 7.563 1.095 10.671 2.996l-3.93-10.291-12.8-3.84c-8.352-2.711-14.283-10.424-14.283-19.522 0-1.015 0.074-2.014 0.217-2.989l7.667-57.489c0.472-3.652 1.841-6.917 3.879-9.655l8.921-12.105-4.48-12.8-0.64-0.64-58.88-83.2c-1.312-1.648-2.394-3.555-3.154-5.618l-10.286-32.782c-0.665-1.931-1.049-4.155-1.049-6.469 0-5.74 2.361-10.928 6.165-14.647l14.724-14.724c3.72-3.792 8.898-6.142 14.624-6.142 1.392 0 2.752 0.139 4.067 0.404-75.769-66.258-174.42-106.902-283.011-106.902-152.068 0-285.138 78.852-361.6 197.76l12.16 16c2.841 3.488 4.562 7.986 4.562 12.887 0 0.645-0.030 1.284-0.088 1.914l-7.674 90.159 11.52 64.64c0.194 1.058 0.304 2.274 0.304 3.517 0 3.387-0.822 6.582-2.278 9.397 5.956 2.267 10.417 7.148 12.178 13.181l10.276 34.065c0.729 1.891 1.191 4.079 1.279 6.362l0.641 0.038 25.6-35.84c2.255-3.113 5.291-5.532 8.824-6.99l28.296-12.21c2.49-1.161 5.406-1.838 8.48-1.838 11.312 0 20.482 9.17 20.482 20.482 0 2.022-0.293 3.976-0.839 5.821l-5.723 20.975 8.96 12.8 8.96-7.040 1.28-0.64 31.36-43.52c3.772-5.079 9.751-8.335 16.491-8.335 9.728 0 17.873 6.783 19.962 15.877l9.627 43.018c0.337 1.392 0.531 2.99 0.531 4.633 0 4.793-1.646 9.201-4.404 12.69l-2.527 3.157c3.45 2.339 6.107 5.614 7.632 9.461l19.888 61.579c0.642 1.9 1.013 4.087 1.013 6.362 0 4.318-1.336 8.324-3.618 11.627l-6.355 8.892 30.080 17.28c4.74 2.787 8.21 7.302 9.57 12.658l10.91 38.542c0.474 1.643 0.747 3.53 0.747 5.481 0 4.149-1.234 8.011-3.355 11.237l-7.632 11.443 19.2 13.44 3.2-20.48c1.099-10.373 9.801-18.385 20.374-18.385 9.66 0 17.758 6.688 19.917 15.685l12.188 48.78 48 38.4c4.575 3.784 7.467 9.462 7.467 15.815 0 8.944-5.732 16.549-13.724 19.341l-43.024 12.844c-2.123 0.815-4.579 1.287-7.146 1.287-0.188 0-0.375-0.003-0.562-0.008-1.442-0.337-2.723-0.776-3.941-1.332l-31.232-9.548-5.12 2.56c-2.593 1.274-5.643 2.019-8.868 2.019-0.709 0-1.409-0.036-2.099-0.106l-49.833-5.113c-2.162-0.385-4.094-1.053-5.874-1.974l-19.726-8.266c-3.749 4.012-9.072 6.513-14.979 6.513-1.958 0-3.852-0.275-5.646-0.788l-24.175-7.645-35.84 16.64c-2.567 1.245-5.584 1.973-8.77 1.973-0.517 0-1.030-0.019-1.537-0.057 67.859 44.619 148.892 71.044 236.228 71.044zM494.080 769.92l-21.76-17.28c-2.846 1.593-6.244 2.53-9.862 2.53-4.464 0-8.594-1.428-11.959-3.852l-62.019-43.478c-5.337-3.749-8.782-9.878-8.782-16.812 0-3.962 1.125-7.661 3.073-10.796l12.75-20.393-5.76-22.4-42.24-23.68c-6.355-3.56-10.58-10.251-10.58-17.93 0-4.298 1.324-8.286 3.585-11.58l14.035-19.77-12.8-38.4-11.52-0.64c-10.46-1.008-18.573-9.753-18.573-20.393 0-0.256 0.005-0.51 0.014-0.764l-17.281 12.837c-3.386 2.571-7.672 4.119-12.319 4.119-7.127 0-13.405-3.641-17.073-9.164l-25.007-39.116-18.56 25.6c-3.28 4.495-8.261 7.581-13.978 8.309l-32.742 5.131c-0.287 0.014-0.622 0.023-0.96 0.023s-0.673-0.008-1.007-0.024l-42.833 1.922c-0.266 0.012-0.578 0.019-0.892 0.019-11.312 0-20.482-9.17-20.482-20.482 0-1.136 0.092-2.25 0.27-3.336-3.684 3.62-8.664 5.775-14.148 5.775-4.011 0-7.753-1.153-10.913-3.146 9.529 91.86 48.444 174.653 106.325 240.050 0.554 0.252 0.974 0.466 1.385 0.693l85.015 31.307 35.2-16.64c2.631-1.319 5.733-2.091 9.015-2.091 2.033 0 3.996 0.296 5.85 0.848l18.415 5.723c3.78-4.912 9.661-8.046 16.275-8.046 2.907 0 5.673 0.606 8.177 1.698l30.588 14.029 40.96 4.48 6.4-3.2c2.693-1.394 5.879-2.211 9.256-2.211 2.179 0 4.279 0.34 6.249 0.971l31.215 9.56zM649.6 747.52l11.52-0.64 28.16-19.2c3.261-2.29 7.313-3.66 11.684-3.66 1.529 0 3.018 0.167 4.452 0.485l32.504 6.375 53.12-16.64c1.931-0.665 4.155-1.049 6.469-1.049 5.74 0 10.928 2.361 14.647 6.165l17.284 17.924c17.861-19.592 33.975-40.703 48-63.36l-1.92-13.44-28.16-10.24c-7.838-2.993-13.303-10.45-13.303-19.183 0-5.467 2.142-10.433 5.632-14.106l16.632-18.551c3.707-3.909 8.923-6.355 14.712-6.4l46.728-1.28c2.080-5.921 3.935-11.884 5.76-17.92l-55.68-37.12c-4.612-3.037-7.888-7.781-8.94-13.312l-6.42 6.272c-3.77 4.242-9.241 6.902-15.333 6.902-1.598 0-3.153-0.183-4.645-0.529l-33.782-8.933c-3.513-0.971-6.533-2.747-8.964-5.124l-12.796 24.964c-0.44 0.744-0.862 1.37-1.317 1.971l-18.523 26.829-2.56 48c-0.268 3.093-1.185 5.922-2.613 8.42l-40.907 76.060c-2.933 5.257-7.974 9.037-13.95 10.219l-25.73 5.141c-1.167 0.236-2.509 0.371-3.883 0.371-2.273 0-4.459-0.37-6.501-1.053l-7.535-2.518-7.68 17.92 3.84 10.24zM933.76 530.56c5.165-26.676 8.32-54.36 8.32-82.56 0-14.207-0.578-28.389-1.92-42.24l-18.56 30.72c-3.572 6.309-10.239 10.497-17.884 10.497-1.143 0-2.264-0.094-3.355-0.273-1.351-0.321-2.632-0.761-3.849-1.316l-38.912-14.028c-1.473-0.558-2.738-1.204-3.92-1.969 0.456 1.516 0.672 3.2 0.672 4.935 0 3.102-0.69 6.044-1.924 8.679l-19.787 47.234 33.28-35.84c3.729-3.852 8.947-6.244 14.724-6.244 11.312 0 20.482 9.17 20.482 20.482 0 0.169-0.002 0.338-0.006 0.507l-1.28 39.015 33.92 22.4zM133.12 467.2l14.72-8.96-1.28-3.84-13.44 12.8zM478.080 439.040c-3.421-0.582-6.451-1.935-9.011-3.877l-83.149-56.283c-5.474-3.733-9.021-9.94-9.021-16.975 0-0.558 0.022-1.11 0.066-1.657l5.755-69.688c0.403-5.645 3.036-10.606 7.015-14.059l21.785-17.941c3.49-2.849 7.995-4.574 12.902-4.574 3.221 0 6.268 0.743 8.979 2.068l41.479 20.427 12.8-3.2 39.040-36.48c3.663-3.476 8.626-5.614 14.088-5.614 1.585 0 3.128 0.18 4.61 0.521l25.462 5.733c5.953 1.522 10.769 5.499 13.386 10.761l27.574 56.439c1.207 2.533 1.912 5.504 1.912 8.64s-0.705 6.107-1.965 8.764l-17.227 38.916c-0.413 0.45-0.83 0.867-1.265 1.266l-32.655 58.254c-3.571 6.313-10.24 10.505-17.888 10.505-6.849 0-12.912-3.361-16.631-8.524l-9.642-13.501-20.48 23.040c-3.776 4.328-9.3 7.047-15.46 7.047-0.19 0-0.379-0.003-0.568-0.008-0.259 0.015-0.595 0.023-0.932 0.023s-0.673-0.008-1.007-0.024zM82.56 430.72l33.92-42.24c2.377-2.615 5.399-4.604 8.815-5.719l-6.895-40.361c-0.413-1.536-0.65-3.3-0.65-5.119 0-0.225 0.004-0.45 0.011-0.674l6.399-74.207c-24.603 51.375-39.249 108.072-41.6 168.32zM895.36 401.28l19.84-33.28c0.44-0.744 0.862-1.37 1.317-1.971l13.403-18.509c-7.106-29.751-17.159-58.139-30.080-85.12l-47.36-30.080-17.28-7.040 28.16 39.68c0.758 1.285 1.411 2.771 1.882 4.335l10.918 28.305c0.831 2.143 1.313 4.622 1.313 7.215 0 4.501-1.452 8.664-3.913 12.044l-12.759 17.221-4.48 35.2 5.12 1.28c5.803 1.827 10.399 6.005 12.749 11.388l5.811 14.212 15.36 5.12zM477.44 391.040l24.32-28.8c3.777-4.348 9.314-7.081 15.49-7.081 6.751 0 12.74 3.267 16.471 8.306l7.079 9.655 16.64-29.44h-0.64l14.080-29.44-18.56-39.040-5.12-1.28-35.2 33.28c-2.593 2.463-5.844 4.257-9.462 5.093l-25.098 5.787c-1.199 0.249-2.576 0.392-3.987 0.392-3.455 0-6.709-0.855-9.564-2.366l-37.009-17.226-3.84 3.2-4.48 49.92 58.88 39.040zM675.2 306.56c-9.799-1.649-17.172-10.070-17.172-20.213 0-4.416 1.397-8.505 3.774-11.85l7.637-12.097-3.84-5.12c-2.51-3.375-4.018-7.624-4.018-12.226 0-2.742 0.535-5.359 1.508-7.752-2.391 1.148-5.116 1.735-7.979 1.735-1.269 0-2.511-0.115-3.716-0.336-4.648-0.511-8.853-2.61-12.037-5.744l-44.797-44.797c-3.634-3.71-5.876-8.795-5.876-14.404 0-11.373 9.219-20.592 20.592-20.592 5.768 0 10.982 2.372 14.72 6.193l44.164 44.164c4.012 3.749 6.512 9.072 6.512 14.978 0 2.67-0.511 5.221-1.44 7.56 2.577-1.331 5.542-2.028 8.668-2.028 7.016 0 13.213 3.506 16.936 8.861l12.205 17.348c2.423 3.323 3.876 7.487 3.876 11.99 0 4.104-1.207 7.925-3.285 11.13l-15.312 23.6c-3.674 5.849-10.090 9.679-17.401 9.679-0.633 0-1.26-0.029-1.878-0.085-0.207 0.020-0.543 0.028-0.88 0.028s-0.673-0.008-1.007-0.024zM855.040 189.44c-13.635-18.082-28.533-34.864-44.8-50.56l8.96 19.2 25.6 26.88 10.24 4.48z" />
<glyph unicode="&#xe944;" glyph-name="GraduationCap" d="M512 816.64c-3.141 0-6.072-0.476-8.96-1.92l-491.52-245.76c-6.922-3.482-11.52-10.798-11.52-18.56s4.577-15.078 11.52-18.56l70.4-35.2v-298.24c-23.71-8.523-40.96-30.995-40.96-57.6 0-26.071 31.386-73.984 44.8-93.44l16.64-24.32 16.64 24.32c13.414 19.436 44.8 67.369 44.8 93.44 0 26.605-17.25 49.077-40.96 57.6v277.76l40.96-20.48v53.76c0 71.066 102.257 85.458 145.92 91.52 65.802 9.134 146.289 10.88 202.24 10.88 55.931 0 136.417-1.746 202.24-10.88 43.663-6.062 145.92-20.454 145.92-91.52v-53.76l152.32 76.16c6.943 3.461 11.52 10.798 11.52 18.56s-4.577 15.078-11.52 18.56l-491.52 245.76c-2.877 1.444-5.819 1.92-8.96 1.92zM512 570.88c-114.729 0-307.2-7.987-307.2-61.44v-95.36c42.598 18.186 129.475 33.92 307.2 33.92s264.602-15.734 307.2-33.92v95.36c0 53.453-192.471 61.44-307.2 61.44zM512 407.040c-212.828 0-301.24-25.027-307.2-40.96 0.348-53.309 192.573-61.44 307.2-61.44 112.23 0 298.511 7.859 306.56 58.24 0.205 1.167 0.64 1.992 0.64 3.2-5.55 15.688-93.921 40.96-307.2 40.96z" />
</font>
</defs>
</svg>
